<svg width="28" height="33" viewBox="0 0 28 33" fill="none" xmlns="http://www.w3.org/2000/svg">
<path d="M3.56668 0C2.73046 0 1.92848 0.428012 1.33718 1.18988C0.745885 1.95175 0.413696 2.98506 0.413696 4.0625V13.9625C1.48133 12.2103 3.02747 11.0487 4.73687 10.7146C6.44627 10.3805 8.19021 10.8991 9.6131 12.1646C11.036 13.4301 12.0307 15.3472 12.3944 17.525C12.7581 19.7029 12.4634 21.9775 11.5704 23.885V26.25H24.4249C25.2611 26.25 26.0631 25.822 26.6544 25.0601C27.2457 24.2983 27.5779 23.2649 27.5779 22.1875V4.0625C27.5779 2.98506 27.2457 1.95175 26.6544 1.18988C26.0631 0.428012 25.2611 0 24.4249 0H3.56668ZM7.20474 7.5H20.7868C21.0441 7.5 21.2909 7.6317 21.4728 7.86612C21.6548 8.10054 21.757 8.41848 21.757 8.75C21.757 9.08152 21.6548 9.39946 21.4728 9.63388C21.2909 9.8683 21.0441 10 20.7868 10H7.20474C6.94744 10 6.70068 9.8683 6.51874 9.63388C6.3368 9.39946 6.23459 9.08152 6.23459 8.75C6.23459 8.41848 6.3368 8.10054 6.51874 7.86612C6.70068 7.6317 6.94744 7.5 7.20474 7.5ZM13.9958 17.5C13.9958 17.1685 14.098 16.8505 14.2799 16.6161C14.4619 16.3817 14.7086 16.25 14.9659 16.25H20.7868C21.0441 16.25 21.2909 16.3817 21.4728 16.6161C21.6548 16.8505 21.757 17.1685 21.757 17.5C21.757 17.8315 21.6548 18.1495 21.4728 18.3839C21.2909 18.6183 21.0441 18.75 20.7868 18.75H14.9659C14.7086 18.75 14.4619 18.6183 14.2799 18.3839C14.098 18.1495 13.9958 17.8315 13.9958 17.5ZM11.0853 19.375C11.0853 21.1984 10.5232 22.947 9.52251 24.2364C8.52185 25.5257 7.16466 26.25 5.74952 26.25C4.33437 26.25 2.97718 25.5257 1.97652 24.2364C0.975862 22.947 0.413696 21.1984 0.413696 19.375C0.413696 17.5516 0.975862 15.803 1.97652 14.5136C2.97718 13.2243 4.33437 12.5 5.74952 12.5C7.16466 12.5 8.52185 13.2243 9.52251 14.5136C10.5232 15.803 11.0853 17.5516 11.0853 19.375ZM10.1152 26.0775C8.89332 27.4029 7.34675 28.1283 5.74952 28.125C4.15228 28.1283 2.60572 27.4029 1.38385 26.0775V31.25C1.38389 31.4729 1.43017 31.6916 1.5179 31.8837C1.60563 32.0758 1.73161 32.2341 1.8828 32.3424C2.03399 32.4506 2.20489 32.5048 2.3778 32.4993C2.55071 32.4938 2.71935 32.4289 2.86623 32.3113L5.74952 29.9988L8.6328 32.3113C8.77976 32.429 8.94848 32.4939 9.12147 32.4993C9.29447 32.5047 9.46544 32.4504 9.61666 32.3421C9.76788 32.2337 9.89385 32.0751 9.98151 31.8829C10.0692 31.6907 10.1153 31.4717 10.1152 31.2488V26.0775Z" fill="white"/>
</svg>
