<svg width="42" height="40" viewBox="0 0 42 40" fill="none" xmlns="http://www.w3.org/2000/svg">
<path fill-rule="evenodd" clip-rule="evenodd" d="M11.2088 3.51992C9.8251 3.69659 9.09393 4.02159 8.57118 4.51992C8.05014 5.01992 7.71018 5.71992 7.52397 7.04158C7.33264 8.40325 7.32922 10.2066 7.32922 12.7916V27.0749C8.00568 26.6243 8.75624 26.29 9.54835 26.0866C10.4503 25.8549 11.5027 25.8549 13.0453 25.8566H34.6626V12.7933C34.6626 10.2066 34.6591 8.40325 34.4678 7.04158C34.2816 5.71992 33.9416 5.01992 33.4206 4.51992C32.8979 4.02159 32.1667 3.69659 30.7829 3.51992C29.3582 3.33659 27.4722 3.33325 24.7662 3.33325H17.2256C14.5196 3.33325 12.6336 3.33659 11.2088 3.51992ZM12.0425 10.9916C12.0425 10.2449 12.6746 9.63992 13.4553 9.63992H28.5365C28.9071 9.6368 29.2639 9.77714 29.5287 10.0302C29.7935 10.2832 29.9448 10.6283 29.9493 10.9899C29.9452 11.3518 29.7942 11.6973 29.5293 11.9507C29.2645 12.2041 28.9074 12.3447 28.5365 12.3416H13.4553C13.0847 12.3447 12.7279 12.2044 12.463 11.9513C12.1982 11.6983 12.047 11.3532 12.0425 10.9916ZM13.4553 15.9466C13.0847 15.9435 12.7279 16.0838 12.463 16.3368C12.1982 16.5899 12.047 16.935 12.0425 17.2966C12.0425 18.0433 12.6746 18.6483 13.4553 18.6483H22.8802C23.2511 18.6518 23.6084 18.5117 23.8735 18.2586C24.1387 18.0055 24.2902 17.6601 24.2947 17.2983C24.2906 16.9361 24.1394 16.5903 23.8741 16.3368C23.6089 16.0834 23.2514 15.943 22.8802 15.9466H13.4553Z" fill="white"/>
<path d="M13.2623 28.5583H34.6626C34.6575 30.4417 34.6267 31.8483 34.4695 32.9583C34.2833 34.28 33.9434 34.98 33.4223 35.48C32.8996 35.9783 32.1684 36.3033 30.7847 36.48C29.3599 36.6634 27.4739 36.6667 24.7679 36.6667H17.2256C14.5196 36.6667 12.6336 36.6633 11.2089 36.4817C9.82512 36.3033 9.09395 35.9783 8.5712 35.48C8.05016 34.98 7.7102 34.28 7.52399 32.9583C7.45395 32.4583 7.40783 31.8967 7.38049 31.2583C7.61465 30.6341 8.00088 30.0747 8.50592 29.6284C9.01096 29.1821 9.61965 28.8624 10.2795 28.6967C10.775 28.57 11.419 28.5583 13.2623 28.5583Z" fill="white"/>
</svg>
