<svg width="30" height="29" viewBox="0 0 30 29" fill="none" xmlns="http://www.w3.org/2000/svg">
<path fill-rule="evenodd" clip-rule="evenodd" d="M15.7223 28.6701C18.6427 27.2834 29.3818 21.6134 29.3818 13.1667C29.3818 5.66675 22.6689 0.666748 14.9958 0.666748C7.57986 0.666748 0.609863 5.66675 0.609863 13.1667C0.609863 21.6134 11.349 27.2834 14.2693 28.6701C14.4939 28.7776 14.743 28.8338 14.9958 28.8338C15.2486 28.8338 15.4977 28.7776 15.7223 28.6701ZM14.5804 18.5951L9.54714 13.6834C9.23096 13.3723 8.98989 13.0023 8.83999 12.5981C8.69008 12.1939 8.63478 11.7647 8.67777 11.3391C8.72075 10.9136 8.86103 10.5014 9.08927 10.13C9.31751 9.75856 9.62847 9.43647 10.0015 9.18512C10.3745 8.93377 10.801 8.75893 11.2525 8.67224C11.7041 8.58554 12.1704 8.58898 12.6205 8.68232C13.0705 8.77566 13.4939 8.95676 13.8626 9.21358C14.2312 9.47039 14.5366 9.79703 14.7585 10.1717L14.8843 10.3851C14.895 10.4039 14.911 10.4197 14.9307 10.4307C14.9503 10.4418 14.9729 10.4476 14.9958 10.4476C15.0188 10.4476 15.0413 10.4418 15.061 10.4307C15.0806 10.4197 15.0967 10.4039 15.1073 10.3851L15.2332 10.1717C16.4164 8.15175 19.5076 8.05508 20.8329 9.99841C21.6296 11.1651 21.4695 12.6817 20.4445 13.6817L15.4112 18.5934C15.2458 18.7551 15.1613 18.8367 15.0606 18.8551C15.0178 18.8623 14.9739 18.8623 14.9311 18.8551C14.8304 18.8367 14.7459 18.7551 14.5804 18.5934" fill="white"/>
</svg>
