<svg width="36" height="40" viewBox="0 0 36 40" fill="none" xmlns="http://www.w3.org/2000/svg">
<path fill-rule="evenodd" clip-rule="evenodd" d="M17.963 4.28552C16.9079 4.26395 15.8595 4.47813 14.8776 4.91579C13.8958 5.35346 12.9998 6.00601 12.241 6.83612C11.4822 7.66623 10.8754 8.65759 10.4554 9.75347C10.0354 10.8494 9.81047 12.0282 9.79339 13.2227V25.7141C9.79339 26.4719 9.52749 27.1986 9.05418 27.7344C8.58087 28.2702 7.93893 28.5712 7.26958 28.5712H4.11482C3.11078 28.5712 2.14787 28.1197 1.43791 27.316C0.727952 26.5123 0.329102 25.4222 0.329102 24.2855L0.329102 18.5712C0.329102 17.4346 0.727952 16.3445 1.43791 15.5408C2.14787 14.7371 3.11078 14.2855 4.11482 14.2855H6.00767V13.1712C6.0307 11.4152 6.35907 9.68153 6.97402 8.0692C7.58897 6.45686 8.47847 4.99746 9.5917 3.77434C10.7049 2.55122 12.0201 1.58835 13.4621 0.940708C14.9041 0.293067 16.4446 -0.0266526 17.9958 -0.000190945C19.5469 -0.0266526 21.0875 0.293067 22.5294 0.940708C23.9714 1.58835 25.2866 2.55122 26.3998 3.77434C27.5131 4.99746 28.4026 6.45686 29.0175 8.0692C29.6325 9.68153 29.9608 11.4152 29.9839 13.1712V14.2855H31.8767C32.8807 14.2855 33.8437 14.7371 34.5536 15.5408C35.2636 16.3445 35.6624 17.4346 35.6624 18.5712V24.2855C35.6624 25.4222 35.2636 26.5123 34.5536 27.316C33.8437 28.1197 32.8807 28.5712 31.8767 28.5712H29.9839V29.9998C29.9842 31.9305 29.3565 33.7938 28.2207 35.2341C27.0849 36.6743 25.5204 37.5907 23.8258 37.8084C23.4967 38.4735 23.0168 39.0273 22.4356 39.4125C21.8545 39.7977 21.193 40.0005 20.5196 39.9998H16.7339C15.7298 39.9998 14.7669 39.5483 14.057 38.7445C13.347 37.9408 12.9481 36.8507 12.9481 35.7141C12.9481 34.5774 13.347 33.4874 14.057 32.6836C14.7669 31.8799 15.7298 31.4284 16.7339 31.4284H20.5196C21.8875 31.4284 23.0863 32.2484 23.75 33.4798C24.4457 33.2988 25.0665 32.8561 25.5112 32.224C25.9558 31.5919 26.198 30.8078 26.1981 29.9998V13.2198C26.1808 12.0192 25.9535 10.8345 25.5292 9.73396C25.105 8.63346 24.4923 7.63908 23.7265 6.80829C22.9607 5.9775 22.0571 5.32679 21.0678 4.89377C20.0785 4.46076 19.0232 4.25402 17.963 4.28552Z" fill="white"/>
</svg>
