<svg width="30" height="33" viewBox="0 0 30 33" fill="none" xmlns="http://www.w3.org/2000/svg">
<path d="M0.416748 30.0833V11.9749C0.416748 11.4416 0.536192 10.9367 0.775081 10.4603C1.01397 9.98395 1.34314 9.59159 1.76258 9.28325L12.9813 0.78742C13.5688 0.338808 14.2397 0.114502 14.9938 0.114502C15.748 0.114502 16.423 0.338808 17.0188 0.78742L28.2376 9.28117C28.6584 9.5895 28.9876 9.98256 29.2251 10.4603C29.464 10.9367 29.5834 11.4416 29.5834 11.9749V30.0833C29.5834 30.6416 29.3758 31.1284 28.9605 31.5437C28.5452 31.9589 28.0584 32.1666 27.5001 32.1666H20.4501C19.9723 32.1666 19.5723 32.0055 19.2501 31.6833C18.9279 31.3596 18.7667 30.9596 18.7667 30.4833V20.5478C18.7667 20.0714 18.6056 19.6721 18.2834 19.3499C17.9598 19.0263 17.5598 18.8645 17.0834 18.8645H12.9167C12.4404 18.8645 12.0411 19.0263 11.7188 19.3499C11.3952 19.6721 11.2334 20.0714 11.2334 20.5478V30.4853C11.2334 30.9617 11.0723 31.361 10.7501 31.6833C10.4279 32.0055 10.0286 32.1666 9.55217 32.1666H2.50008C1.94175 32.1666 1.45494 31.9589 1.03966 31.5437C0.624386 31.1284 0.416748 30.6416 0.416748 30.0833Z" fill="#696682"/>
</svg>
