<svg width="54" height="61" viewBox="0 0 54 61" fill="none" xmlns="http://www.w3.org/2000/svg">
<path d="M39.1038 14.6548C37.4276 14.6548 35.8692 14.8896 34.4283 15.3593C32.9875 15.8289 31.675 16.2941 30.4908 16.7549C29.3067 17.2156 28.279 17.4451 27.4079 17.4433C26.494 17.4433 25.4781 17.2236 24.36 16.7842C23.1727 16.3198 21.9715 15.8856 20.7579 15.482C19.4409 15.0485 18.0509 14.83 16.6513 14.8363C13.9038 14.8363 11.2574 15.5212 8.71208 16.891C6.16486 18.2572 4.07556 20.2799 2.44417 22.959C0.814722 25.6363 0 28.9372 0 32.8616C0 35.3148 0.312083 37.7671 0.93625 40.2185C1.56236 42.6734 2.40042 44.9932 3.45042 47.1777C4.50042 49.3659 5.66222 51.2978 6.93583 52.9736C8.58861 55.0763 10.2025 56.8846 11.7775 58.3985C13.3525 59.9106 15.1783 60.6667 17.255 60.6667C18.6161 60.6667 19.8003 60.4621 20.8075 60.053C21.8128 59.6438 22.8793 59.2302 24.0071 58.8121C25.1349 58.3941 26.5485 58.1851 28.2479 58.1851C29.5429 58.1851 30.626 58.3069 31.4971 58.5506C32.3682 58.7979 33.1664 59.079 33.8917 59.3939C34.6208 59.7123 35.386 59.9934 36.1871 60.2371C36.9921 60.4826 37.9643 60.6053 39.1038 60.6053C40.601 60.6053 41.9465 60.2424 43.1404 59.5166C44.3382 58.7926 45.4446 57.8586 46.4596 56.7147C47.4746 55.5673 48.4633 54.371 49.4258 53.1257C50.4758 51.715 51.3294 50.3612 51.9867 49.0643C52.7563 47.591 53.4113 46.0697 53.9467 44.512C53.8806 44.4906 53.3944 44.2603 52.4883 43.8209C51.5822 43.3814 50.5556 42.6814 49.4083 41.7208C48.2553 40.7602 47.25 39.5033 46.3925 37.9503C45.5311 36.3973 45.1004 34.4964 45.1004 32.2478C45.1004 30.2856 45.4407 28.5947 46.1213 27.1751C46.8038 25.752 47.6029 24.577 48.5187 23.6501C49.4346 22.7197 50.2561 22.009 50.9833 21.518C51.7086 21.027 52.1267 20.7513 52.2375 20.6908C51.1214 19.2196 49.9042 18.0749 48.5858 17.2565C47.3907 16.4967 46.0823 15.8981 44.7008 15.4794C43.5942 15.1459 42.454 14.9144 41.2971 14.7882C40.5687 14.7114 39.8368 14.6686 39.1038 14.6548ZM36.7588 9.6835C37.7874 8.56098 38.6244 7.25878 39.27 5.77691C39.9114 4.31972 40.2411 2.76344 40.2413 1.19253C40.2413 0.742454 40.2082 0.343967 40.1421 -0.00292969C38.4679 0.0575549 36.7199 0.517416 34.8979 1.37665C33.1785 2.16688 31.647 3.2606 30.3917 4.59479C29.3476 5.6987 28.4894 6.93895 27.8454 8.27457C27.1162 9.69383 26.7378 11.2427 26.7371 12.8109C26.7321 13.1828 26.7772 13.5538 26.8713 13.9157C27.1629 13.9761 27.4643 14.0064 27.7754 14.0064C29.2746 14.0064 30.8671 13.5972 32.5529 12.7789C34.1652 12.0123 35.5949 10.9601 36.7588 9.6835Z" fill="#696682"/>
</svg>
