<svg width="41" height="47" viewBox="0 0 41 47" fill="none" xmlns="http://www.w3.org/2000/svg">
<path d="M20.125 0.5L40.25 12.1208V35.3583L20.125 46.9792L0 35.3583V12.1208L20.125 0.5ZM20.125 5.3125L4.16667 14.525V32.9542L20.125 42.1667L36.0833 32.9542V14.525L20.125 5.3125ZM20.125 17.4896C18.4674 17.4896 16.8777 18.1481 15.7056 19.3202C14.5335 20.4923 13.875 22.082 13.875 23.7396C13.875 25.3972 14.5335 26.9869 15.7056 28.159C16.8777 29.3311 18.4674 29.9896 20.125 29.9896C21.7826 29.9896 23.3723 29.3311 24.5444 28.159C25.7165 26.9869 26.375 25.3972 26.375 23.7396C26.375 22.082 25.7165 20.4923 24.5444 19.3202C23.3723 18.1481 21.7826 17.4896 20.125 17.4896ZM9.70833 23.7396C9.70833 20.9769 10.8058 18.3274 12.7593 16.3739C14.7128 14.4204 17.3623 13.3229 20.125 13.3229C22.8877 13.3229 25.5372 14.4204 27.4907 16.3739C29.4442 18.3274 30.5417 20.9769 30.5417 23.7396C30.5417 26.5023 29.4442 29.1518 27.4907 31.1053C25.5372 33.0588 22.8877 34.1563 20.125 34.1563C17.3623 34.1563 14.7128 33.0588 12.7593 31.1053C10.8058 29.1518 9.70833 26.5023 9.70833 23.7396Z" fill="#696682"/>
</svg>
