<svg width="36" height="45" viewBox="0 0 36 45" fill="none" xmlns="http://www.w3.org/2000/svg">
<path d="M17.9998 18.3334C22.6022 18.3334 26.3332 14.6025 26.3332 10.0001C26.3332 5.39771 22.6022 1.66675 17.9998 1.66675C13.3975 1.66675 9.6665 5.39771 9.6665 10.0001C9.6665 14.6025 13.3975 18.3334 17.9998 18.3334Z" stroke="#696682" stroke-width="2"/>
<path d="M34.6624 35.0002C34.6652 34.6585 34.6666 34.3113 34.6666 33.9585C34.6666 28.7814 27.2041 24.5835 17.9999 24.5835C8.79575 24.5835 1.33325 28.7814 1.33325 33.9585C1.33325 39.1356 1.33325 43.3335 17.9999 43.3335C22.6478 43.3335 25.9999 43.0064 28.4166 42.4231" stroke="#696682" stroke-width="2" stroke-linecap="round"/>
</svg>
