<svg width="737" height="399" viewBox="0 0 737 399" fill="none" xmlns="http://www.w3.org/2000/svg">
<path d="M241.792 57.2009C256.813 54.94 272.134 53.8 287.498 53.8C287.498 53.8 287.498 76.63 287.498 99.46C287.498 122.29 287.498 145.12 287.498 145.12C281.352 145.12 275.224 145.576 269.215 146.48L241.792 57.2009Z" fill="#FFAE4C"/>
<path d="M287.498 52.7285C272.134 52.7285 256.813 53.8685 241.792 56.1293V57.2008C256.813 54.9399 272.134 53.7999 287.498 53.7999V52.7285Z" fill="url(#paint0_linear_148_3450)"/>
<path d="M241.792 56.1294L269.215 145.409V146.48L241.792 57.2008V56.1294Z" fill="url(#paint1_linear_148_3450)"/>
<path d="M269.215 145.409C275.224 144.505 281.352 144.049 287.498 144.049V145.12C281.352 145.12 275.224 145.576 269.215 146.48V145.409Z" fill="url(#paint2_linear_148_3450)"/>
<path d="M241.794 56.1293C256.815 53.8685 272.136 52.7285 287.5 52.7285V144.049C281.354 144.049 275.226 144.505 269.218 145.409L241.794 56.1293Z" fill="#FFAE4C"/>
<path d="M287.501 99.46C287.501 76.63 287.501 53.8 287.501 53.8C339.205 53.8 389.217 66.6978 428.563 90.1791L343.926 159.672C328.187 150.279 308.183 145.12 287.501 145.12C287.501 145.12 287.501 122.29 287.501 99.46Z" fill="#8979FF"/>
<path d="M428.563 86.6075C389.217 63.1263 339.205 50.2285 287.501 50.2285V53.7999C339.205 53.7999 389.217 66.6977 428.563 90.179V86.6075Z" fill="url(#paint3_linear_148_3450)"/>
<path d="M343.918 156.1L428.556 86.6077V90.1791L343.918 159.672V156.1Z" fill="url(#paint4_linear_148_3450)"/>
<path d="M287.501 141.549C308.183 141.549 328.187 146.708 343.926 156.1V159.672C328.187 150.279 308.183 145.12 287.501 145.12V141.549Z" fill="url(#paint5_linear_148_3450)"/>
<path d="M287.5 50.2285C339.205 50.2285 389.217 63.1263 428.563 86.6075L343.925 156.1C328.187 146.708 308.182 141.549 287.5 141.549L287.5 50.2285Z" fill="#8979FF"/>
<path d="M428.556 90.1792C467.902 113.66 494.006 146.188 502.184 181.926C504.014 189.922 504.92 197.962 504.922 205.972C504.929 233.76 494.061 261.187 473.181 285.181L361.768 237.672C370.115 228.081 374.462 217.119 374.465 206.011C374.465 202.8 374.103 199.576 373.369 196.37C370.098 182.075 359.656 169.064 343.918 159.672L428.556 90.1792Z" fill="#FF928A"/>
<path d="M428.556 83.0364L343.918 152.529V159.672L428.556 90.1792V83.0364Z" fill="url(#paint6_linear_148_3450)"/>
<path d="M502.198 174.783C494.019 139.045 467.915 106.518 428.569 83.0364V90.1792C467.915 113.66 494.019 146.188 502.198 181.926V174.783Z" fill="url(#paint7_linear_148_3450)"/>
<path d="M343.918 152.529C359.656 161.921 370.098 174.932 373.369 189.227V196.37C370.098 182.075 359.656 169.064 343.918 159.672V152.529Z" fill="url(#paint8_linear_148_3450)"/>
<path d="M504.921 198.829C504.919 190.819 504.013 182.779 502.183 174.783V181.926C504.013 189.922 504.919 197.962 504.921 205.972V198.829Z" fill="url(#paint9_linear_148_3450)"/>
<path d="M373.384 189.227C374.117 192.433 374.48 195.657 374.479 198.868V205.989C374.478 202.785 374.116 199.569 373.384 196.37V189.227Z" fill="url(#paint10_linear_148_3450)"/>
<path d="M374.469 198.868C374.466 209.976 370.119 220.938 361.773 230.529V237.672C370.119 228.081 374.466 217.119 374.469 206.011V198.868Z" fill="url(#paint11_linear_148_3450)"/>
<path d="M473.19 278.038C494.056 254.06 504.923 226.653 504.931 198.884V205.972C504.938 233.76 494.07 261.187 473.19 285.181V278.038Z" fill="url(#paint12_linear_148_3450)"/>
<path d="M361.773 230.529L473.186 278.038V285.18L361.773 237.672V230.529Z" fill="url(#paint13_linear_148_3450)"/>
<path d="M428.563 83.0363C467.909 106.517 494.013 139.045 502.191 174.783C510.37 210.52 500.087 247.128 473.189 278.038L361.775 230.529C372.535 218.166 376.648 203.522 373.377 189.227C370.105 174.932 359.664 161.921 343.925 152.529L428.563 83.0363Z" fill="#FF928A"/>
<path d="M473.189 285.181C454.46 306.702 428.391 324.631 397.321 337.359C366.25 350.087 331.151 357.216 295.174 358.105C259.196 358.995 223.466 353.617 191.191 342.455C158.915 331.292 131.104 314.695 110.254 294.152C89.4029 273.609 76.1654 249.764 71.7291 224.756C70.6238 218.525 70.0734 212.271 70.0718 206.028C70.0669 187.215 75.0453 168.508 84.8359 150.872C97.8754 127.383 119.043 106.528 146.438 90.1791C173.833 73.83 206.599 62.4983 241.794 57.2009L269.218 146.48C255.14 148.599 242.033 153.132 231.075 159.672C220.117 166.211 211.65 174.553 206.435 183.949C202.522 190.996 200.531 198.471 200.529 205.989C200.528 208.494 200.748 211.003 201.192 213.502C202.966 223.506 208.261 233.044 216.602 241.261C224.942 249.478 236.066 256.117 248.977 260.582C261.887 265.047 276.179 267.198 290.57 266.842C304.961 266.486 319 263.635 331.428 258.544C343.857 253.452 354.284 246.281 361.776 237.672L473.189 285.181Z" fill="#3CC3DF"/>
<path d="M241.793 37.2009C206.598 42.4983 173.832 53.83 146.437 70.1791V90.1791C173.832 73.83 206.598 62.4983 241.793 57.2009V37.2009Z" fill="url(#paint14_linear_148_3450)"/>
<path d="M269.217 126.48L241.794 37.2009V57.2009L269.217 146.48V126.48Z" fill="url(#paint15_linear_148_3450)"/>
<path d="M146.438 70.1792C119.043 86.5283 97.8759 107.383 84.8364 130.872V150.872C97.8759 127.383 119.043 106.528 146.438 90.1792V70.1792Z" fill="url(#paint16_linear_148_3450)"/>
<path d="M231.075 139.672C242.033 133.132 255.14 128.599 269.218 126.48V146.48C255.14 148.599 242.033 153.132 231.075 159.672V139.672Z" fill="url(#paint17_linear_148_3450)"/>
<path d="M206.434 163.949C211.65 154.553 220.117 146.211 231.075 139.672V159.672C220.117 166.211 211.65 174.553 206.434 183.949V163.949Z" fill="url(#paint18_linear_148_3450)"/>
<path d="M84.8359 130.872C75.0453 148.508 70.0669 167.215 70.0718 186.028V205.973C70.0767 187.178 75.0549 168.491 84.8359 150.872V130.872Z" fill="url(#paint19_linear_148_3450)"/>
<path d="M200.529 185.989C200.531 178.471 202.523 170.996 206.435 163.949V183.949C202.523 190.996 200.531 198.471 200.529 205.989V185.989Z" fill="url(#paint20_linear_148_3450)"/>
<path d="M200.529 186.011C200.529 186.004 200.529 185.996 200.529 185.989V186.011C200.53 188.508 200.75 191.01 201.192 193.502V213.502C200.749 211.003 200.529 208.493 200.529 205.989V186.011Z" fill="url(#paint21_linear_148_3450)"/>
<path d="M200.529 185.989C200.529 185.996 200.529 186.004 200.529 186.011V185.989Z" fill="url(#paint22_linear_148_3450)"/>
<path d="M70.0718 186.028C70.0734 192.271 70.6238 198.525 71.7291 204.756V224.756C70.6238 218.525 70.0734 212.271 70.0718 206.028V186.028Z" fill="url(#paint23_linear_148_3450)"/>
<path d="M216.601 221.261C208.261 213.044 202.966 203.506 201.192 193.502V213.502C202.966 223.506 208.261 233.044 216.601 241.261V221.261Z" fill="url(#paint24_linear_148_3450)"/>
<path d="M361.775 217.672C354.283 226.281 343.856 233.452 331.427 238.544V258.544C343.856 253.452 354.283 246.281 361.775 237.672V217.672Z" fill="url(#paint25_linear_148_3450)"/>
<path d="M248.976 240.582C236.066 236.117 224.942 229.478 216.602 221.261V241.261C224.942 249.478 236.066 256.117 248.976 260.582V240.582Z" fill="url(#paint26_linear_148_3450)"/>
<path d="M71.73 204.756C76.1663 229.764 89.4038 253.609 110.254 274.152V294.152C89.4038 273.609 76.1663 249.764 71.73 224.756V204.756Z" fill="url(#paint27_linear_148_3450)"/>
<path d="M473.188 265.18L361.775 217.672V237.672L473.188 285.18V265.18Z" fill="url(#paint28_linear_148_3450)"/>
<path d="M331.429 238.544C319.001 243.635 304.961 246.486 290.57 246.842V266.842C304.961 266.486 319.001 263.635 331.429 258.544V238.544Z" fill="url(#paint29_linear_148_3450)"/>
<path d="M290.57 246.842C276.179 247.198 261.887 245.047 248.977 240.582V260.582C261.887 265.047 276.179 267.198 290.57 266.842V246.842Z" fill="url(#paint30_linear_148_3450)"/>
<path d="M397.321 317.359C428.391 304.631 454.461 286.702 473.189 265.18V285.18C454.461 306.702 428.391 324.631 397.321 337.359V317.359Z" fill="url(#paint31_linear_148_3450)"/>
<path d="M110.254 274.152C131.105 294.695 158.916 311.292 191.191 322.455V342.455C158.916 331.292 131.105 314.695 110.254 294.152V274.152Z" fill="url(#paint32_linear_148_3450)"/>
<path d="M295.173 338.105C331.151 337.216 366.25 330.087 397.32 317.359V337.359C366.25 350.087 331.151 357.216 295.173 358.105V338.105Z" fill="url(#paint33_linear_148_3450)"/>
<path d="M191.19 322.455C223.466 333.617 259.196 338.995 295.173 338.105V358.105C259.196 358.995 223.466 353.617 191.19 342.455V322.455Z" fill="url(#paint34_linear_148_3450)"/>
<path d="M473.189 265.18C454.46 286.702 428.391 304.631 397.32 317.359C366.25 330.087 331.151 337.216 295.173 338.105C259.196 338.995 223.466 333.617 191.191 322.455C158.915 311.292 131.104 294.695 110.253 274.152C89.4026 253.609 76.1651 229.764 71.7288 204.756C67.2925 179.748 71.7962 154.361 84.8356 130.872C97.8751 107.383 119.042 86.5282 146.437 70.1791C173.833 53.83 206.598 42.4982 241.794 37.2009L269.218 126.48C255.139 128.599 242.033 133.132 231.075 139.672C220.117 146.211 211.65 154.553 206.434 163.949C201.219 173.344 199.417 183.499 201.192 193.502C202.966 203.506 208.261 213.044 216.601 221.261C224.942 229.478 236.066 236.117 248.976 240.582C261.887 245.047 276.178 247.198 290.569 246.842C304.96 246.486 319 243.635 331.428 238.544C343.856 233.452 354.284 226.281 361.775 217.672L473.189 265.18Z" fill="#3CC3DF"/>
<path d="M315.308 86.3481L312.922 77.6209H313.996L315.819 84.7288H315.905L317.763 77.6209H318.956L320.814 84.7288H320.899L322.723 77.6209H323.797L321.41 86.3481H320.319L318.393 79.3936H318.325L316.399 86.3481H315.308ZM327.112 86.4845C326.481 86.4845 325.937 86.3453 325.48 86.0669C325.025 85.7856 324.675 85.3936 324.427 84.8908C324.183 84.3851 324.061 83.797 324.061 83.1266C324.061 82.4561 324.183 81.8652 324.427 81.3538C324.675 80.8396 325.018 80.4391 325.459 80.1521C325.902 79.8623 326.419 79.7175 327.01 79.7175C327.351 79.7175 327.687 79.7743 328.02 79.8879C328.352 80.0016 328.655 80.1862 328.927 80.4419C329.2 80.6947 329.417 81.03 329.579 81.4476C329.741 81.8652 329.822 82.3794 329.822 82.9902V83.4163H324.777V82.547H328.8C328.8 82.1777 328.726 81.8481 328.578 81.5584C328.433 81.2686 328.226 81.0399 327.956 80.8723C327.689 80.7047 327.373 80.6209 327.01 80.6209C326.609 80.6209 326.263 80.7203 325.97 80.9192C325.68 81.1152 325.457 81.3709 325.301 81.6862C325.145 82.0016 325.067 82.3396 325.067 82.7004V83.28C325.067 83.7743 325.152 84.1933 325.322 84.5371C325.496 84.878 325.736 85.1379 326.042 85.3169C326.349 85.493 326.706 85.5811 327.112 85.5811C327.376 85.5811 327.615 85.5442 327.828 85.4703C328.044 85.3936 328.23 85.28 328.386 85.1294C328.542 84.976 328.663 84.7856 328.748 84.5584L329.72 84.8311C329.618 85.1606 329.446 85.4504 329.204 85.7004C328.963 85.9476 328.665 86.1408 328.309 86.28C327.954 86.4163 327.555 86.4845 327.112 86.4845ZM331.488 86.3481V77.6209H332.494V80.8425H332.579C332.653 80.7288 332.756 80.5839 332.886 80.4078C333.02 80.2288 333.21 80.0697 333.457 79.9305C333.707 79.7885 334.045 79.7175 334.471 79.7175C335.023 79.7175 335.508 79.8552 335.929 80.1308C336.349 80.4064 336.677 80.797 336.913 81.3027C337.149 81.8084 337.267 82.405 337.267 83.0925C337.267 83.7856 337.149 84.3865 336.913 84.895C336.677 85.4007 336.351 85.7927 335.933 86.0712C335.515 86.3467 335.034 86.4845 334.488 86.4845C334.068 86.4845 333.731 86.4149 333.479 86.2757C333.226 86.1337 333.031 85.9731 332.895 85.7942C332.758 85.6123 332.653 85.4618 332.579 85.3425H332.46V86.3481H331.488ZM332.477 83.0754C332.477 83.5697 332.55 84.0058 332.694 84.3837C332.839 84.7587 333.051 85.0527 333.329 85.2658C333.608 85.476 333.949 85.5811 334.352 85.5811C334.773 85.5811 335.123 85.4703 335.405 85.2487C335.689 85.0243 335.902 84.7231 336.044 84.3453C336.189 83.9646 336.261 83.5413 336.261 83.0754C336.261 82.6152 336.19 82.2004 336.048 81.8311C335.909 81.4589 335.697 81.1649 335.413 80.949C335.132 80.7302 334.778 80.6209 334.352 80.6209C333.943 80.6209 333.599 80.7246 333.321 80.932C333.042 81.1365 332.832 81.4234 332.69 81.7927C332.548 82.1592 332.477 82.5868 332.477 83.0754Z" fill="white"/>
<path d="M316.991 94.6209V103.348H315.41V96.1592H315.359L313.318 97.4632V96.0143L315.487 94.6209H316.991ZM322.433 103.514C321.731 103.514 321.129 103.337 320.626 102.982C320.126 102.624 319.741 102.108 319.471 101.435C319.204 100.759 319.071 99.9447 319.071 98.993C319.074 98.0413 319.209 97.2317 319.476 96.5641C319.746 95.8936 320.131 95.3822 320.631 95.03C321.133 94.6777 321.734 94.5016 322.433 94.5016C323.132 94.5016 323.733 94.6777 324.236 95.03C324.738 95.3822 325.123 95.8936 325.39 96.5641C325.66 97.2345 325.795 98.0442 325.795 98.993C325.795 99.9476 325.66 100.763 325.39 101.439C325.123 102.112 324.738 102.627 324.236 102.982C323.736 103.337 323.135 103.514 322.433 103.514ZM322.433 102.181C322.979 102.181 323.409 101.912 323.724 101.375C324.042 100.835 324.202 100.041 324.202 98.993C324.202 98.2998 324.129 97.7175 323.984 97.2459C323.839 96.7743 323.635 96.4192 323.371 96.1805C323.106 95.9391 322.794 95.8183 322.433 95.8183C321.89 95.8183 321.461 96.0882 321.146 96.628C320.831 97.1649 320.672 97.9533 320.669 98.993C320.666 99.6891 320.736 100.274 320.878 100.749C321.023 101.223 321.227 101.581 321.491 101.823C321.756 102.061 322.069 102.181 322.433 102.181Z" fill="white"/>
<path d="M336.638 94.6209V103.348H335.581V95.7288H335.53L333.399 97.1436V96.0697L335.581 94.6209H336.638ZM342.216 94.6209V103.348H341.159V95.7288H341.108L338.977 97.1436V96.0697L341.159 94.6209H342.216ZM344.96 103.416C344.75 103.416 344.569 103.341 344.419 103.19C344.268 103.04 344.193 102.86 344.193 102.649C344.193 102.439 344.268 102.259 344.419 102.108C344.569 101.958 344.75 101.882 344.96 101.882C345.17 101.882 345.351 101.958 345.501 102.108C345.652 102.259 345.727 102.439 345.727 102.649C345.727 102.788 345.692 102.916 345.621 103.033C345.552 103.149 345.46 103.243 345.344 103.314C345.23 103.382 345.102 103.416 344.96 103.416ZM347.515 103.348V102.581L350.395 99.4277C350.733 99.0584 351.012 98.7373 351.231 98.4646C351.449 98.1891 351.611 97.9305 351.716 97.6891C351.824 97.4447 351.878 97.1891 351.878 96.922C351.878 96.6152 351.805 96.3496 351.657 96.1251C351.512 95.9007 351.313 95.7274 351.06 95.6052C350.807 95.4831 350.523 95.422 350.208 95.422C349.873 95.422 349.58 95.4916 349.33 95.6308C349.083 95.7672 348.891 95.9589 348.755 96.2061C348.621 96.4533 348.555 96.743 348.555 97.0754H347.549C347.549 96.5641 347.667 96.1152 347.903 95.7288C348.138 95.3425 348.459 95.0413 348.866 94.8254C349.275 94.6095 349.733 94.5016 350.242 94.5016C350.753 94.5016 351.206 94.6095 351.601 94.8254C351.996 95.0413 352.306 95.3325 352.53 95.699C352.755 96.0655 352.867 96.4731 352.867 96.922C352.867 97.243 352.809 97.557 352.692 97.8638C352.579 98.1677 352.38 98.5072 352.096 98.8822C351.814 99.2544 351.424 99.7089 350.924 100.246L348.964 102.342V102.411H353.02V103.348H347.515ZM354.388 101.558V100.689L358.224 94.6209H358.854V95.9675H358.428L355.53 100.553V100.621H360.695V101.558H354.388ZM358.496 103.348V101.294V100.889V94.6209H359.502V103.348H358.496ZM366.741 101.712V101.252C366.741 100.933 366.806 100.642 366.937 100.378C367.07 100.111 367.264 99.8979 367.517 99.7388C367.772 99.5768 368.082 99.4959 368.445 99.4959C368.815 99.4959 369.124 99.5768 369.374 99.7388C369.624 99.8979 369.813 100.111 369.941 100.378C370.069 100.642 370.133 100.933 370.133 101.252V101.712C370.133 102.03 370.068 102.323 369.937 102.59C369.809 102.854 369.619 103.067 369.366 103.229C369.116 103.388 368.809 103.467 368.445 103.467C368.076 103.467 367.765 103.388 367.512 103.229C367.259 103.067 367.068 102.854 366.937 102.59C366.806 102.323 366.741 102.03 366.741 101.712ZM367.61 101.252V101.712C367.61 101.976 367.673 102.213 367.798 102.423C367.923 102.631 368.139 102.735 368.445 102.735C368.744 102.735 368.954 102.631 369.076 102.423C369.201 102.213 369.264 101.976 369.264 101.712V101.252C369.264 100.987 369.204 100.752 369.085 100.544C368.965 100.334 368.752 100.229 368.445 100.229C368.147 100.229 367.933 100.334 367.802 100.544C367.674 100.752 367.61 100.987 367.61 101.252ZM362.394 96.7175V96.2572C362.394 95.9391 362.46 95.6479 362.59 95.3837C362.724 95.1166 362.917 94.9035 363.17 94.7445C363.426 94.5825 363.735 94.5016 364.099 94.5016C364.468 94.5016 364.778 94.5825 365.028 94.7445C365.278 94.9035 365.467 95.1166 365.595 95.3837C365.722 95.6479 365.786 95.9391 365.786 96.2572V96.7175C365.786 97.0356 365.721 97.3283 365.59 97.5953C365.463 97.8595 365.272 98.0726 365.019 98.2345C364.769 98.3936 364.463 98.4731 364.099 98.4731C363.73 98.4731 363.419 98.3936 363.166 98.2345C362.913 98.0726 362.721 97.8595 362.59 97.5953C362.46 97.3283 362.394 97.0356 362.394 96.7175ZM363.264 96.2572V96.7175C363.264 96.9817 363.326 97.2189 363.451 97.4291C363.576 97.6365 363.792 97.7402 364.099 97.7402C364.397 97.7402 364.607 97.6365 364.73 97.4291C364.855 97.2189 364.917 96.9817 364.917 96.7175V96.2572C364.917 95.993 364.857 95.7572 364.738 95.5498C364.619 95.3396 364.406 95.2345 364.099 95.2345C363.801 95.2345 363.586 95.3396 363.455 95.5498C363.328 95.7572 363.264 95.993 363.264 96.2572ZM362.718 103.348L368.718 94.6209H369.69L363.69 103.348H362.718Z" fill="white"/>
<path d="M412.554 170.92H411.446L414.651 162.193H415.741L418.946 170.92H417.838L415.23 163.573H415.162L412.554 170.92ZM412.963 167.511H417.429V168.448H412.963V167.511ZM420.902 170.988C420.692 170.988 420.511 170.913 420.361 170.762C420.21 170.612 420.135 170.431 420.135 170.221C420.135 170.011 420.21 169.83 420.361 169.68C420.511 169.529 420.692 169.454 420.902 169.454C421.112 169.454 421.293 169.529 421.443 169.68C421.594 169.83 421.669 170.011 421.669 170.221C421.669 170.36 421.633 170.488 421.562 170.605C421.494 170.721 421.402 170.815 421.285 170.886C421.172 170.954 421.044 170.988 420.902 170.988ZM424.667 162.193V170.92H423.61V162.193H424.667Z" fill="white"/>
<path d="M411.915 187.92V186.778L414.945 183.808C415.234 183.515 415.476 183.255 415.669 183.028C415.862 182.801 416.007 182.58 416.104 182.367C416.2 182.154 416.249 181.927 416.249 181.686C416.249 181.41 416.186 181.174 416.061 180.978C415.936 180.779 415.764 180.626 415.545 180.518C415.327 180.41 415.078 180.356 414.8 180.356C414.513 180.356 414.261 180.416 414.045 180.535C413.83 180.651 413.662 180.818 413.543 181.034C413.426 181.249 413.368 181.507 413.368 181.805H411.864C411.864 181.251 411.99 180.769 412.243 180.36C412.496 179.951 412.844 179.634 413.287 179.41C413.733 179.186 414.244 179.073 414.821 179.073C415.406 179.073 415.92 179.183 416.364 179.401C416.807 179.62 417.151 179.92 417.395 180.301C417.642 180.681 417.766 181.116 417.766 181.605C417.766 181.931 417.703 182.252 417.578 182.568C417.453 182.883 417.233 183.232 416.918 183.616C416.605 183.999 416.166 184.464 415.601 185.009L414.097 186.539V186.599H417.898V187.92H411.915ZM422.594 188.086C421.892 188.086 421.29 187.909 420.787 187.553C420.287 187.195 419.902 186.68 419.632 186.007C419.365 185.33 419.231 184.517 419.231 183.565C419.234 182.613 419.369 181.803 419.636 181.136C419.906 180.465 420.291 179.954 420.791 179.602C421.294 179.249 421.895 179.073 422.594 179.073C423.293 179.073 423.893 179.249 424.396 179.602C424.899 179.954 425.284 180.465 425.551 181.136C425.821 181.806 425.956 182.616 425.956 183.565C425.956 184.519 425.821 185.335 425.551 186.011C425.284 186.684 424.899 187.198 424.396 187.553C423.896 187.909 423.295 188.086 422.594 188.086ZM422.594 186.752C423.139 186.752 423.57 186.484 423.885 185.947C424.203 185.407 424.362 184.613 424.362 183.565C424.362 182.872 424.29 182.289 424.145 181.818C424 181.346 423.795 180.991 423.531 180.752C423.267 180.511 422.955 180.39 422.594 180.39C422.051 180.39 421.622 180.66 421.307 181.2C420.991 181.737 420.832 182.525 420.83 183.565C420.827 184.261 420.896 184.846 421.038 185.32C421.183 185.795 421.388 186.153 421.652 186.394C421.916 186.633 422.23 186.752 422.594 186.752Z" fill="white"/>
<path d="M434.043 187.92V187.153L436.923 183.999C437.261 183.63 437.54 183.309 437.758 183.036C437.977 182.761 438.139 182.502 438.244 182.261C438.352 182.017 438.406 181.761 438.406 181.494C438.406 181.187 438.332 180.921 438.185 180.697C438.04 180.472 437.841 180.299 437.588 180.177C437.335 180.055 437.051 179.994 436.736 179.994C436.401 179.994 436.108 180.063 435.858 180.203C435.611 180.339 435.419 180.531 435.283 180.778C435.149 181.025 435.082 181.315 435.082 181.647H434.077C434.077 181.136 434.195 180.687 434.43 180.301C434.666 179.914 434.987 179.613 435.393 179.397C435.803 179.181 436.261 179.073 436.77 179.073C437.281 179.073 437.734 179.181 438.129 179.397C438.524 179.613 438.834 179.904 439.058 180.271C439.283 180.637 439.395 181.045 439.395 181.494C439.395 181.815 439.337 182.129 439.22 182.436C439.106 182.74 438.908 183.079 438.624 183.454C438.342 183.826 437.952 184.281 437.452 184.818L435.491 186.914V186.982H439.548V187.92H434.043ZM441.308 187.92V187.153L444.189 183.999C444.527 183.63 444.805 183.309 445.024 183.036C445.243 182.761 445.405 182.502 445.51 182.261C445.618 182.017 445.672 181.761 445.672 181.494C445.672 181.187 445.598 180.921 445.45 180.697C445.305 180.472 445.106 180.299 444.854 180.177C444.601 180.055 444.317 179.994 444.001 179.994C443.666 179.994 443.374 180.063 443.124 180.203C442.876 180.339 442.685 180.531 442.548 180.778C442.415 181.025 442.348 181.315 442.348 181.647H441.342C441.342 181.136 441.46 180.687 441.696 180.301C441.932 179.914 442.253 179.613 442.659 179.397C443.068 179.181 443.527 179.073 444.035 179.073C444.547 179.073 445 179.181 445.395 179.397C445.79 179.613 446.099 179.904 446.324 180.271C446.548 180.637 446.66 181.045 446.66 181.494C446.66 181.815 446.602 182.129 446.486 182.436C446.372 182.74 446.173 183.079 445.889 183.454C445.608 183.826 445.217 184.281 444.717 184.818L442.757 186.914V186.982H446.814V187.92H441.308ZM449.324 187.988C449.114 187.988 448.933 187.913 448.783 187.762C448.632 187.612 448.557 187.431 448.557 187.221C448.557 187.011 448.632 186.83 448.783 186.68C448.933 186.529 449.114 186.454 449.324 186.454C449.534 186.454 449.714 186.529 449.865 186.68C450.016 186.83 450.091 187.011 450.091 187.221C450.091 187.36 450.055 187.488 449.984 187.605C449.916 187.721 449.824 187.815 449.707 187.886C449.594 187.954 449.466 187.988 449.324 187.988ZM451.674 186.13V185.261L455.509 179.193H456.14V180.539H455.714L452.816 185.124V185.193H457.981V186.13H451.674ZM455.782 187.92V185.866V185.461V179.193H456.788V187.92H455.782ZM459.85 187.92L463.754 180.198V180.13H459.254V179.193H464.845V180.181L460.958 187.92H459.85ZM470.882 186.284V185.823C470.882 185.505 470.947 185.214 471.078 184.95C471.212 184.683 471.405 184.47 471.658 184.311C471.913 184.149 472.223 184.068 472.587 184.068C472.956 184.068 473.266 184.149 473.516 184.311C473.766 184.47 473.955 184.683 474.082 184.95C474.21 185.214 474.274 185.505 474.274 185.823V186.284C474.274 186.602 474.209 186.894 474.078 187.161C473.95 187.426 473.76 187.639 473.507 187.801C473.257 187.96 472.95 188.039 472.587 188.039C472.217 188.039 471.906 187.96 471.653 187.801C471.401 187.639 471.209 187.426 471.078 187.161C470.947 186.894 470.882 186.602 470.882 186.284ZM471.751 185.823V186.284C471.751 186.548 471.814 186.785 471.939 186.995C472.064 187.203 472.28 187.306 472.587 187.306C472.885 187.306 473.095 187.203 473.217 186.995C473.342 186.785 473.405 186.548 473.405 186.284V185.823C473.405 185.559 473.345 185.323 473.226 185.116C473.106 184.906 472.893 184.801 472.587 184.801C472.288 184.801 472.074 184.906 471.943 185.116C471.815 185.323 471.751 185.559 471.751 185.823ZM466.535 181.289V180.829C466.535 180.511 466.601 180.22 466.731 179.955C466.865 179.688 467.058 179.475 467.311 179.316C467.567 179.154 467.876 179.073 468.24 179.073C468.609 179.073 468.919 179.154 469.169 179.316C469.419 179.475 469.608 179.688 469.736 179.955C469.864 180.22 469.928 180.511 469.928 180.829V181.289C469.928 181.607 469.862 181.9 469.731 182.167C469.604 182.431 469.413 182.644 469.16 182.806C468.91 182.965 468.604 183.045 468.24 183.045C467.871 183.045 467.56 182.965 467.307 182.806C467.054 182.644 466.862 182.431 466.731 182.167C466.601 181.9 466.535 181.607 466.535 181.289ZM467.405 180.829V181.289C467.405 181.553 467.467 181.791 467.592 182.001C467.717 182.208 467.933 182.312 468.24 182.312C468.538 182.312 468.749 182.208 468.871 182.001C468.996 181.791 469.058 181.553 469.058 181.289V180.829C469.058 180.565 468.999 180.329 468.879 180.122C468.76 179.911 468.547 179.806 468.24 179.806C467.942 179.806 467.727 179.911 467.597 180.122C467.469 180.329 467.405 180.565 467.405 180.829ZM466.859 187.92L472.859 179.193H473.831L467.831 187.92H466.859Z" fill="white"/>
<path d="M124.843 246.111H122.15V237.383H124.963C125.809 237.383 126.534 237.558 127.136 237.907C127.738 238.254 128.2 238.753 128.521 239.403C128.842 240.051 129.002 240.827 129.002 241.73C129.002 242.639 128.84 243.422 128.517 244.078C128.193 244.731 127.721 245.234 127.102 245.586C126.482 245.936 125.73 246.111 124.843 246.111ZM123.207 245.173H124.775C125.497 245.173 126.095 245.034 126.569 244.755C127.044 244.477 127.397 244.081 127.63 243.567C127.863 243.052 127.98 242.44 127.98 241.73C127.98 241.025 127.865 240.419 127.634 239.91C127.404 239.399 127.061 239.007 126.603 238.734C126.146 238.459 125.576 238.321 124.894 238.321H123.207V245.173ZM132.565 246.264C132.15 246.264 131.774 246.186 131.436 246.03C131.098 245.871 130.829 245.642 130.63 245.344C130.431 245.042 130.332 244.679 130.332 244.253C130.332 243.878 130.406 243.574 130.553 243.341C130.701 243.105 130.899 242.92 131.146 242.787C131.393 242.653 131.666 242.554 131.964 242.488C132.265 242.42 132.568 242.366 132.872 242.327C133.269 242.275 133.592 242.237 133.839 242.211C134.089 242.183 134.271 242.136 134.384 242.071C134.501 242.005 134.559 241.892 134.559 241.73V241.696C134.559 241.275 134.444 240.949 134.214 240.716C133.987 240.483 133.642 240.366 133.178 240.366C132.698 240.366 132.322 240.471 132.049 240.682C131.777 240.892 131.585 241.116 131.474 241.355L130.519 241.014C130.69 240.616 130.917 240.307 131.201 240.085C131.488 239.861 131.801 239.704 132.139 239.616C132.48 239.525 132.815 239.48 133.144 239.48C133.355 239.48 133.596 239.505 133.869 239.557C134.144 239.605 134.41 239.706 134.666 239.859C134.924 240.013 135.139 240.244 135.309 240.554C135.48 240.863 135.565 241.278 135.565 241.798V246.111H134.559V245.224H134.508C134.44 245.366 134.326 245.518 134.167 245.68C134.008 245.842 133.796 245.98 133.532 246.094C133.268 246.207 132.946 246.264 132.565 246.264ZM132.718 245.361C133.116 245.361 133.451 245.282 133.724 245.126C134 244.97 134.207 244.768 134.346 244.521C134.488 244.274 134.559 244.014 134.559 243.741V242.821C134.517 242.872 134.423 242.919 134.278 242.961C134.136 243.001 133.971 243.037 133.784 243.068C133.599 243.096 133.419 243.122 133.242 243.145C133.069 243.165 132.928 243.182 132.821 243.196C132.559 243.23 132.315 243.285 132.088 243.362C131.863 243.436 131.681 243.548 131.542 243.699C131.406 243.846 131.338 244.048 131.338 244.304C131.338 244.653 131.467 244.917 131.725 245.096C131.987 245.273 132.318 245.361 132.718 245.361ZM140.247 239.565V240.417H136.855V239.565H140.247ZM137.844 237.997H138.849V244.236C138.849 244.52 138.89 244.733 138.973 244.875C139.058 245.014 139.166 245.108 139.297 245.156C139.43 245.202 139.571 245.224 139.719 245.224C139.829 245.224 139.92 245.219 139.991 245.207C140.062 245.193 140.119 245.182 140.162 245.173L140.366 246.077C140.298 246.102 140.203 246.128 140.081 246.153C139.959 246.182 139.804 246.196 139.616 246.196C139.332 246.196 139.054 246.135 138.781 246.013C138.511 245.89 138.287 245.704 138.108 245.454C137.932 245.204 137.844 244.889 137.844 244.508V237.997ZM143.686 246.264C143.271 246.264 142.895 246.186 142.557 246.03C142.219 245.871 141.95 245.642 141.751 245.344C141.552 245.042 141.453 244.679 141.453 244.253C141.453 243.878 141.527 243.574 141.675 243.341C141.822 243.105 142.02 242.92 142.267 242.787C142.514 242.653 142.787 242.554 143.085 242.488C143.386 242.42 143.689 242.366 143.993 242.327C144.39 242.275 144.713 242.237 144.96 242.211C145.21 242.183 145.392 242.136 145.506 242.071C145.622 242.005 145.68 241.892 145.68 241.73V241.696C145.68 241.275 145.565 240.949 145.335 240.716C145.108 240.483 144.763 240.366 144.3 240.366C143.819 240.366 143.443 240.471 143.17 240.682C142.898 240.892 142.706 241.116 142.595 241.355L141.64 241.014C141.811 240.616 142.038 240.307 142.322 240.085C142.609 239.861 142.922 239.704 143.26 239.616C143.601 239.525 143.936 239.48 144.265 239.48C144.476 239.48 144.717 239.505 144.99 239.557C145.265 239.605 145.531 239.706 145.787 239.859C146.045 240.013 146.26 240.244 146.43 240.554C146.601 240.863 146.686 241.278 146.686 241.798V246.111H145.68V245.224H145.629C145.561 245.366 145.447 245.518 145.288 245.68C145.129 245.842 144.917 245.98 144.653 246.094C144.389 246.207 144.067 246.264 143.686 246.264ZM143.839 245.361C144.237 245.361 144.572 245.282 144.845 245.126C145.121 244.97 145.328 244.768 145.467 244.521C145.609 244.274 145.68 244.014 145.68 243.741V242.821C145.638 242.872 145.544 242.919 145.399 242.961C145.257 243.001 145.092 243.037 144.905 243.068C144.72 243.096 144.54 243.122 144.364 243.145C144.19 243.165 144.05 243.182 143.942 243.196C143.68 243.23 143.436 243.285 143.209 243.362C142.984 243.436 142.802 243.548 142.663 243.699C142.527 243.846 142.459 244.048 142.459 244.304C142.459 244.653 142.588 244.917 142.846 245.096C143.108 245.273 143.439 245.361 143.839 245.361ZM156.806 239.565C156.754 239.133 156.547 238.798 156.183 238.559C155.82 238.321 155.374 238.202 154.845 238.202C154.459 238.202 154.121 238.264 153.831 238.389C153.544 238.514 153.32 238.686 153.158 238.905C152.999 239.123 152.919 239.372 152.919 239.65C152.919 239.883 152.975 240.084 153.085 240.251C153.199 240.416 153.344 240.554 153.52 240.665C153.696 240.773 153.881 240.862 154.074 240.933C154.267 241.001 154.445 241.057 154.607 241.099L155.493 241.338C155.72 241.398 155.973 241.48 156.252 241.585C156.533 241.69 156.801 241.834 157.057 242.015C157.316 242.194 157.529 242.425 157.696 242.706C157.864 242.987 157.948 243.332 157.948 243.741C157.948 244.213 157.824 244.639 157.577 245.02C157.333 245.4 156.975 245.703 156.503 245.927C156.034 246.152 155.465 246.264 154.794 246.264C154.169 246.264 153.628 246.163 153.171 245.961C152.716 245.76 152.358 245.478 152.097 245.118C151.838 244.757 151.692 244.338 151.658 243.861H152.749C152.777 244.19 152.888 244.463 153.081 244.679C153.277 244.892 153.524 245.051 153.823 245.156C154.124 245.258 154.448 245.309 154.794 245.309C155.198 245.309 155.56 245.244 155.881 245.113C156.202 244.98 156.456 244.795 156.644 244.559C156.831 244.321 156.925 244.042 156.925 243.724C156.925 243.434 156.844 243.199 156.682 243.017C156.52 242.835 156.307 242.687 156.043 242.574C155.779 242.46 155.493 242.361 155.186 242.275L154.112 241.969C153.431 241.773 152.891 241.493 152.493 241.129C152.095 240.765 151.897 240.29 151.897 239.702C151.897 239.213 152.029 238.787 152.293 238.423C152.56 238.057 152.918 237.773 153.367 237.571C153.818 237.366 154.323 237.264 154.879 237.264C155.442 237.264 155.942 237.365 156.379 237.567C156.817 237.765 157.164 238.038 157.419 238.385C157.678 238.731 157.814 239.125 157.828 239.565H156.806ZM162.208 246.247C161.594 246.247 161.066 246.102 160.623 245.812C160.18 245.523 159.839 245.123 159.6 244.615C159.361 244.106 159.242 243.525 159.242 242.872C159.242 242.207 159.364 241.621 159.609 241.112C159.856 240.601 160.199 240.202 160.64 239.915C161.083 239.625 161.6 239.48 162.191 239.48C162.651 239.48 163.066 239.565 163.435 239.736C163.805 239.906 164.107 240.145 164.343 240.452C164.579 240.758 164.725 241.116 164.782 241.525H163.776C163.699 241.227 163.529 240.963 163.265 240.733C163.003 240.5 162.651 240.383 162.208 240.383C161.816 240.383 161.472 240.486 161.177 240.69C160.884 240.892 160.655 241.177 160.491 241.547C160.329 241.913 160.248 242.344 160.248 242.838C160.248 243.344 160.327 243.784 160.486 244.159C160.648 244.534 160.876 244.825 161.168 245.032C161.464 245.24 161.81 245.344 162.208 245.344C162.469 245.344 162.707 245.298 162.92 245.207C163.133 245.116 163.313 244.986 163.461 244.815C163.609 244.645 163.714 244.44 163.776 244.202H164.782C164.725 244.588 164.584 244.936 164.36 245.246C164.138 245.552 163.844 245.797 163.478 245.978C163.114 246.157 162.691 246.247 162.208 246.247ZM166.252 246.111V239.565H167.258V246.111H166.252ZM166.763 238.474C166.567 238.474 166.398 238.407 166.256 238.274C166.117 238.14 166.047 237.98 166.047 237.792C166.047 237.605 166.117 237.444 166.256 237.311C166.398 237.177 166.567 237.111 166.763 237.111C166.959 237.111 167.127 237.177 167.266 237.311C167.408 237.444 167.479 237.605 167.479 237.792C167.479 237.98 167.408 238.14 167.266 238.274C167.127 238.407 166.959 238.474 166.763 238.474ZM171.844 246.247C171.213 246.247 170.669 246.108 170.212 245.829C169.757 245.548 169.406 245.156 169.159 244.653C168.915 244.148 168.793 243.559 168.793 242.889C168.793 242.219 168.915 241.628 169.159 241.116C169.406 240.602 169.75 240.202 170.191 239.915C170.634 239.625 171.151 239.48 171.742 239.48C172.083 239.48 172.419 239.537 172.752 239.65C173.084 239.764 173.387 239.949 173.659 240.204C173.932 240.457 174.149 240.792 174.311 241.21C174.473 241.628 174.554 242.142 174.554 242.753V243.179H169.509V242.309H173.531C173.531 241.94 173.458 241.611 173.31 241.321C173.165 241.031 172.958 240.802 172.688 240.635C172.421 240.467 172.105 240.383 171.742 240.383C171.341 240.383 170.995 240.483 170.702 240.682C170.412 240.878 170.189 241.133 170.033 241.449C169.877 241.764 169.799 242.102 169.799 242.463V243.042C169.799 243.537 169.884 243.956 170.054 244.3C170.227 244.64 170.468 244.9 170.774 245.079C171.081 245.255 171.438 245.344 171.844 245.344C172.108 245.344 172.347 245.307 172.56 245.233C172.776 245.156 172.962 245.042 173.118 244.892C173.274 244.738 173.395 244.548 173.48 244.321L174.452 244.594C174.35 244.923 174.178 245.213 173.936 245.463C173.695 245.71 173.397 245.903 173.041 246.042C172.686 246.179 172.287 246.247 171.844 246.247ZM177.09 242.173V246.111H176.084V239.565H177.056V240.588H177.141C177.294 240.255 177.527 239.988 177.84 239.787C178.152 239.582 178.556 239.48 179.05 239.48C179.493 239.48 179.881 239.571 180.213 239.753C180.546 239.932 180.804 240.204 180.989 240.571C181.174 240.934 181.266 241.395 181.266 241.952V246.111H180.26V242.02C180.26 241.505 180.127 241.105 179.86 240.818C179.593 240.528 179.226 240.383 178.76 240.383C178.439 240.383 178.152 240.453 177.899 240.592C177.649 240.731 177.452 240.934 177.307 241.202C177.162 241.469 177.09 241.792 177.09 242.173ZM185.763 246.247C185.149 246.247 184.621 246.102 184.177 245.812C183.734 245.523 183.393 245.123 183.155 244.615C182.916 244.106 182.797 243.525 182.797 242.872C182.797 242.207 182.919 241.621 183.163 241.112C183.41 240.601 183.754 240.202 184.194 239.915C184.638 239.625 185.155 239.48 185.746 239.48C186.206 239.48 186.621 239.565 186.99 239.736C187.359 239.906 187.662 240.145 187.898 240.452C188.133 240.758 188.28 241.116 188.337 241.525H187.331C187.254 241.227 187.084 240.963 186.819 240.733C186.558 240.5 186.206 240.383 185.763 240.383C185.371 240.383 185.027 240.486 184.731 240.69C184.439 240.892 184.21 241.177 184.045 241.547C183.883 241.913 183.802 242.344 183.802 242.838C183.802 243.344 183.882 243.784 184.041 244.159C184.203 244.534 184.43 244.825 184.723 245.032C185.018 245.24 185.365 245.344 185.763 245.344C186.024 245.344 186.261 245.298 186.474 245.207C186.687 245.116 186.868 244.986 187.015 244.815C187.163 244.645 187.268 244.44 187.331 244.202H188.337C188.28 244.588 188.139 244.936 187.915 245.246C187.693 245.552 187.399 245.797 187.033 245.978C186.669 246.157 186.246 246.247 185.763 246.247ZM192.551 246.247C191.92 246.247 191.376 246.108 190.919 245.829C190.464 245.548 190.114 245.156 189.866 244.653C189.622 244.148 189.5 243.559 189.5 242.889C189.5 242.219 189.622 241.628 189.866 241.116C190.114 240.602 190.457 240.202 190.898 239.915C191.341 239.625 191.858 239.48 192.449 239.48C192.79 239.48 193.126 239.537 193.459 239.65C193.791 239.764 194.094 239.949 194.366 240.204C194.639 240.457 194.856 240.792 195.018 241.21C195.18 241.628 195.261 242.142 195.261 242.753V243.179H190.216V242.309H194.239C194.239 241.94 194.165 241.611 194.017 241.321C193.872 241.031 193.665 240.802 193.395 240.635C193.128 240.467 192.812 240.383 192.449 240.383C192.048 240.383 191.702 240.483 191.409 240.682C191.119 240.878 190.896 241.133 190.74 241.449C190.584 241.764 190.506 242.102 190.506 242.463V243.042C190.506 243.537 190.591 243.956 190.761 244.3C190.935 244.64 191.175 244.9 191.481 245.079C191.788 245.255 192.145 245.344 192.551 245.344C192.815 245.344 193.054 245.307 193.267 245.233C193.483 245.156 193.669 245.042 193.825 244.892C193.981 244.738 194.102 244.548 194.187 244.321L195.159 244.594C195.057 244.923 194.885 245.213 194.643 245.463C194.402 245.71 194.104 245.903 193.748 246.042C193.393 246.179 192.994 246.247 192.551 246.247Z" fill="white"/>
<path d="M124.903 263.23C124.335 263.23 123.826 263.123 123.377 262.91C122.928 262.694 122.572 262.399 122.308 262.024C122.046 261.649 121.907 261.22 121.89 260.737H123.424C123.453 261.095 123.607 261.388 123.889 261.615C124.17 261.839 124.508 261.952 124.903 261.952C125.213 261.952 125.488 261.88 125.73 261.738C125.971 261.596 126.161 261.399 126.301 261.146C126.44 260.893 126.508 260.605 126.505 260.281C126.508 259.952 126.438 259.659 126.296 259.403C126.154 259.148 125.96 258.947 125.713 258.802C125.465 258.655 125.181 258.581 124.86 258.581C124.599 258.578 124.342 258.626 124.089 258.726C123.836 258.825 123.636 258.956 123.488 259.118L122.061 258.883L122.517 254.383H127.579V255.704H123.825L123.573 258.018H123.625C123.786 257.828 124.015 257.67 124.311 257.545C124.606 257.417 124.93 257.353 125.282 257.353C125.811 257.353 126.282 257.478 126.697 257.728C127.112 257.976 127.438 258.317 127.677 258.751C127.916 259.186 128.035 259.683 128.035 260.243C128.035 260.819 127.902 261.334 127.634 261.785C127.37 262.234 127.002 262.588 126.531 262.846C126.062 263.102 125.519 263.23 124.903 263.23ZM132.659 263.23C132.241 263.227 131.833 263.155 131.436 263.013C131.038 262.868 130.68 262.633 130.362 262.309C130.044 261.983 129.791 261.55 129.603 261.01C129.416 260.467 129.323 259.795 129.326 258.994C129.326 258.247 129.406 257.581 129.565 256.996C129.724 256.41 129.953 255.916 130.251 255.513C130.549 255.106 130.909 254.797 131.329 254.584C131.752 254.371 132.225 254.264 132.748 254.264C133.296 254.264 133.782 254.372 134.205 254.588C134.632 254.804 134.975 255.099 135.237 255.474C135.498 255.846 135.66 256.267 135.723 256.736H134.167C134.088 256.4 133.924 256.133 133.677 255.934C133.433 255.733 133.123 255.632 132.748 255.632C132.143 255.632 131.677 255.895 131.35 256.42C131.027 256.946 130.863 257.667 130.86 258.585H130.92C131.059 258.335 131.24 258.121 131.461 257.942C131.683 257.763 131.933 257.625 132.211 257.528C132.492 257.429 132.789 257.379 133.102 257.379C133.613 257.379 134.072 257.501 134.478 257.746C134.887 257.99 135.211 258.327 135.45 258.755C135.688 259.182 135.806 259.67 135.803 260.221C135.806 260.795 135.676 261.311 135.411 261.768C135.147 262.223 134.779 262.581 134.308 262.842C133.836 263.103 133.286 263.233 132.659 263.23ZM132.65 261.952C132.96 261.952 133.237 261.876 133.481 261.726C133.725 261.575 133.919 261.372 134.061 261.116C134.203 260.861 134.272 260.574 134.269 260.255C134.272 259.943 134.204 259.66 134.065 259.407C133.928 259.155 133.74 258.954 133.498 258.807C133.257 258.659 132.981 258.585 132.671 258.585C132.441 258.585 132.227 258.629 132.028 258.717C131.829 258.805 131.656 258.927 131.508 259.084C131.36 259.237 131.244 259.416 131.159 259.621C131.076 259.822 131.034 260.038 131.031 260.268C131.034 260.572 131.105 260.852 131.244 261.108C131.383 261.363 131.575 261.568 131.819 261.721C132.063 261.875 132.34 261.952 132.65 261.952Z" fill="white"/>
<path d="M146.894 263.23C146.536 263.224 146.178 263.156 145.821 263.025C145.463 262.895 145.136 262.675 144.84 262.365C144.545 262.052 144.308 261.63 144.129 261.099C143.95 260.565 143.86 259.895 143.86 259.088C143.86 258.315 143.933 257.63 144.078 257.034C144.223 256.434 144.433 255.93 144.708 255.521C144.984 255.109 145.316 254.797 145.705 254.584C146.098 254.371 146.539 254.264 147.031 254.264C147.519 254.264 147.954 254.362 148.335 254.558C148.718 254.751 149.031 255.021 149.272 255.368C149.514 255.714 149.67 256.113 149.741 256.565H148.701C148.605 256.173 148.417 255.848 148.139 255.589C147.86 255.331 147.491 255.202 147.031 255.202C146.355 255.202 145.822 255.496 145.433 256.084C145.046 256.672 144.852 257.497 144.849 258.559H144.917C145.076 258.318 145.265 258.112 145.484 257.942C145.705 257.768 145.95 257.635 146.217 257.541C146.484 257.447 146.767 257.4 147.065 257.4C147.565 257.4 148.022 257.525 148.437 257.775C148.852 258.023 149.184 258.365 149.434 258.802C149.684 259.237 149.809 259.736 149.809 260.298C149.809 260.838 149.688 261.332 149.447 261.781C149.205 262.227 148.866 262.582 148.428 262.846C147.994 263.108 147.482 263.236 146.894 263.23ZM146.894 262.292C147.252 262.292 147.573 262.203 147.857 262.024C148.144 261.845 148.37 261.605 148.535 261.304C148.703 261.003 148.786 260.667 148.786 260.298C148.786 259.937 148.705 259.609 148.544 259.314C148.384 259.015 148.164 258.778 147.883 258.602C147.605 258.426 147.286 258.338 146.928 258.338C146.659 258.338 146.407 258.392 146.174 258.5C145.941 258.605 145.737 258.75 145.561 258.934C145.387 259.119 145.251 259.331 145.152 259.569C145.052 259.805 145.002 260.054 145.002 260.315C145.002 260.662 145.083 260.986 145.245 261.287C145.41 261.588 145.634 261.831 145.919 262.015C146.205 262.2 146.531 262.292 146.894 262.292ZM151.485 263.111V262.344L154.366 259.19C154.704 258.821 154.982 258.5 155.201 258.227C155.42 257.952 155.582 257.693 155.687 257.452C155.795 257.207 155.849 256.952 155.849 256.684C155.849 256.378 155.775 256.112 155.627 255.888C155.482 255.663 155.283 255.49 155.03 255.368C154.778 255.246 154.493 255.184 154.178 255.184C153.843 255.184 153.55 255.254 153.3 255.393C153.053 255.53 152.861 255.721 152.725 255.969C152.591 256.216 152.525 256.505 152.525 256.838H151.519C151.519 256.327 151.637 255.878 151.873 255.491C152.109 255.105 152.43 254.804 152.836 254.588C153.245 254.372 153.704 254.264 154.212 254.264C154.724 254.264 155.177 254.372 155.572 254.588C155.966 254.804 156.276 255.095 156.501 255.461C156.725 255.828 156.837 256.236 156.837 256.684C156.837 257.005 156.779 257.319 156.663 257.626C156.549 257.93 156.35 258.27 156.066 258.645C155.785 259.017 155.394 259.471 154.894 260.008L152.934 262.105V262.173H156.991V263.111H151.485ZM159.501 263.179C159.29 263.179 159.11 263.103 158.959 262.953C158.809 262.802 158.734 262.622 158.734 262.412C158.734 262.202 158.809 262.021 158.959 261.871C159.11 261.72 159.29 261.645 159.501 261.645C159.711 261.645 159.891 261.72 160.042 261.871C160.192 262.021 160.268 262.202 160.268 262.412C160.268 262.551 160.232 262.679 160.161 262.795C160.093 262.912 160.001 263.005 159.884 263.077C159.77 263.145 159.643 263.179 159.501 263.179ZM164.752 254.264C165.11 254.267 165.468 254.335 165.826 254.469C166.183 254.602 166.51 254.824 166.806 255.133C167.101 255.44 167.338 255.859 167.517 256.39C167.696 256.922 167.786 257.588 167.786 258.389C167.786 259.165 167.712 259.853 167.564 260.456C167.419 261.055 167.209 261.561 166.933 261.973C166.661 262.385 166.328 262.697 165.936 262.91C165.547 263.123 165.107 263.23 164.615 263.23C164.127 263.23 163.691 263.133 163.307 262.94C162.926 262.744 162.614 262.473 162.37 262.126C162.128 261.777 161.973 261.372 161.905 260.912H162.945C163.039 261.312 163.225 261.643 163.503 261.905C163.784 262.163 164.155 262.292 164.615 262.292C165.289 262.292 165.82 261.998 166.209 261.41C166.601 260.822 166.797 259.991 166.797 258.917H166.729C166.57 259.156 166.381 259.362 166.162 259.535C165.943 259.709 165.701 259.842 165.433 259.936C165.166 260.03 164.882 260.077 164.581 260.077C164.081 260.077 163.622 259.953 163.205 259.706C162.79 259.456 162.458 259.113 162.208 258.679C161.96 258.241 161.837 257.741 161.837 257.179C161.837 256.645 161.956 256.156 162.195 255.713C162.436 255.267 162.774 254.912 163.209 254.648C163.647 254.383 164.161 254.255 164.752 254.264ZM164.752 255.202C164.394 255.202 164.071 255.291 163.784 255.47C163.5 255.646 163.274 255.885 163.107 256.186C162.942 256.484 162.86 256.815 162.86 257.179C162.86 257.542 162.939 257.873 163.098 258.172C163.26 258.467 163.48 258.703 163.759 258.879C164.04 259.052 164.36 259.139 164.718 259.139C164.987 259.139 165.239 259.086 165.472 258.981C165.705 258.873 165.908 258.727 166.081 258.542C166.257 258.355 166.395 258.143 166.495 257.907C166.594 257.669 166.644 257.42 166.644 257.162C166.644 256.821 166.561 256.501 166.397 256.203C166.235 255.905 166.01 255.663 165.723 255.478C165.439 255.294 165.115 255.202 164.752 255.202ZM169.462 263.111V262.344L172.342 259.19C172.68 258.821 172.959 258.5 173.177 258.227C173.396 257.952 173.558 257.693 173.663 257.452C173.771 257.207 173.825 256.952 173.825 256.684C173.825 256.378 173.751 256.112 173.604 255.888C173.459 255.663 173.26 255.49 173.007 255.368C172.754 255.246 172.47 255.184 172.155 255.184C171.819 255.184 171.527 255.254 171.277 255.393C171.03 255.53 170.838 255.721 170.702 255.969C170.568 256.216 170.501 256.505 170.501 256.838H169.496C169.496 256.327 169.614 255.878 169.849 255.491C170.085 255.105 170.406 254.804 170.812 254.588C171.221 254.372 171.68 254.264 172.189 254.264C172.7 254.264 173.153 254.372 173.548 254.588C173.943 254.804 174.253 255.095 174.477 255.461C174.702 255.828 174.814 256.236 174.814 256.684C174.814 257.005 174.756 257.319 174.639 257.626C174.525 257.93 174.327 258.27 174.042 258.645C173.761 259.017 173.371 259.471 172.871 260.008L170.91 262.105V262.173H174.967V263.111H169.462ZM181.176 261.474V261.014C181.176 260.696 181.241 260.405 181.372 260.14C181.506 259.873 181.699 259.66 181.952 259.501C182.207 259.339 182.517 259.258 182.881 259.258C183.25 259.258 183.56 259.339 183.81 259.501C184.06 259.66 184.248 259.873 184.376 260.14C184.504 260.405 184.568 260.696 184.568 261.014V261.474C184.568 261.792 184.503 262.085 184.372 262.352C184.244 262.616 184.054 262.829 183.801 262.991C183.551 263.15 183.244 263.23 182.881 263.23C182.511 263.23 182.2 263.15 181.947 262.991C181.694 262.829 181.503 262.616 181.372 262.352C181.241 262.085 181.176 261.792 181.176 261.474ZM182.045 261.014V261.474C182.045 261.738 182.108 261.976 182.233 262.186C182.358 262.393 182.574 262.497 182.881 262.497C183.179 262.497 183.389 262.393 183.511 262.186C183.636 261.976 183.699 261.738 183.699 261.474V261.014C183.699 260.75 183.639 260.514 183.52 260.307C183.4 260.096 183.187 259.991 182.881 259.991C182.582 259.991 182.368 260.096 182.237 260.307C182.109 260.514 182.045 260.75 182.045 261.014ZM176.829 256.48V256.02C176.829 255.702 176.895 255.41 177.025 255.146C177.159 254.879 177.352 254.666 177.605 254.507C177.861 254.345 178.17 254.264 178.534 254.264C178.903 254.264 179.213 254.345 179.463 254.507C179.713 254.666 179.902 254.879 180.03 255.146C180.158 255.41 180.221 255.702 180.221 256.02V256.48C180.221 256.798 180.156 257.091 180.025 257.358C179.898 257.622 179.707 257.835 179.454 257.997C179.204 258.156 178.898 258.236 178.534 258.236C178.165 258.236 177.854 258.156 177.601 257.997C177.348 257.835 177.156 257.622 177.025 257.358C176.895 257.091 176.829 256.798 176.829 256.48ZM177.699 256.02V256.48C177.699 256.744 177.761 256.981 177.886 257.192C178.011 257.399 178.227 257.503 178.534 257.503C178.832 257.503 179.042 257.399 179.165 257.192C179.29 256.981 179.352 256.744 179.352 256.48V256.02C179.352 255.755 179.292 255.52 179.173 255.312C179.054 255.102 178.841 254.997 178.534 254.997C178.236 254.997 178.021 255.102 177.89 255.312C177.763 255.52 177.699 255.755 177.699 256.02ZM177.153 263.111L183.153 254.383H184.125L178.125 263.111H177.153Z" fill="white"/>
<path d="M253.07 72.6663H254.127V78.4447C254.127 79.0413 253.986 79.574 253.705 80.0427C253.427 80.5086 253.033 80.8765 252.525 81.1464C252.016 81.4134 251.419 81.547 250.735 81.547C250.05 81.547 249.454 81.4134 248.945 81.1464C248.436 80.8765 248.042 80.5086 247.76 80.0427C247.482 79.574 247.343 79.0413 247.343 78.4447V72.6663H248.4V78.3595C248.4 78.7856 248.493 79.1649 248.681 79.4972C248.868 79.8268 249.135 80.0867 249.482 80.2771C249.831 80.4646 250.249 80.5583 250.735 80.5583C251.221 80.5583 251.638 80.4646 251.988 80.2771C252.337 80.0867 252.604 79.8268 252.789 79.4972C252.976 79.1649 253.07 78.7856 253.07 78.3595V72.6663ZM257.294 72.6663V81.3936H256.237V72.6663H257.294ZM262.362 72.2572L259.549 82.7061H258.629L261.441 72.2572H262.362ZM269.418 72.6663H270.474V78.4447C270.474 79.0413 270.334 79.574 270.053 80.0427C269.774 80.5086 269.381 80.8765 268.872 81.1464C268.364 81.4134 267.767 81.547 267.082 81.547C266.398 81.547 265.801 81.4134 265.293 81.1464C264.784 80.8765 264.389 80.5086 264.108 80.0427C263.83 79.574 263.69 79.0413 263.69 78.4447V72.6663H264.747V78.3595C264.747 78.7856 264.841 79.1649 265.028 79.4972C265.216 79.8268 265.483 80.0867 265.83 80.2771C266.179 80.4646 266.597 80.5583 267.082 80.5583C267.568 80.5583 267.986 80.4646 268.335 80.2771C268.685 80.0867 268.952 79.8268 269.136 79.4972C269.324 79.1649 269.418 78.7856 269.418 78.3595V72.6663ZM273.096 72.6663L275.346 76.297H275.414L277.664 72.6663H278.909L276.164 77.0299L278.909 81.3936H277.664L275.414 77.8311H275.346L273.096 81.3936H271.852L274.664 77.0299L271.852 72.6663H273.096Z" fill="white"/>
<path d="M250.194 98.5129C249.58 98.5129 249.034 98.4078 248.557 98.1975C248.083 97.9873 247.708 97.6947 247.432 97.3197C247.157 96.9447 247.01 96.5115 246.993 96.02H248.596C248.61 96.2558 248.688 96.4617 248.83 96.6379C248.972 96.8112 249.161 96.9461 249.397 97.0427C249.632 97.1393 249.897 97.1876 250.189 97.1876C250.502 97.1876 250.779 97.1336 251.02 97.0257C251.262 96.9149 251.451 96.7615 251.587 96.5654C251.723 96.3694 251.79 96.1436 251.787 95.8879C251.79 95.6237 251.722 95.3907 251.583 95.189C251.444 94.9873 251.242 94.8296 250.978 94.716C250.716 94.6024 250.401 94.5455 250.032 94.5455H249.26V93.3268H250.032C250.336 93.3268 250.601 93.2742 250.829 93.1691C251.059 93.064 251.239 92.9163 251.37 92.7259C251.5 92.5328 251.564 92.3097 251.561 92.0569C251.564 91.8097 251.509 91.5953 251.395 91.4134C251.284 91.2288 251.127 91.0853 250.922 90.983C250.721 90.8808 250.483 90.8296 250.211 90.8296C249.944 90.8296 249.696 90.8779 249.469 90.9745C249.242 91.0711 249.059 91.2089 248.919 91.3879C248.78 91.564 248.706 91.7742 248.698 92.0186H247.177C247.188 91.5299 247.329 91.1009 247.598 90.7316C247.871 90.3595 248.235 90.0697 248.689 89.8623C249.144 89.6521 249.654 89.547 250.219 89.547C250.802 89.547 251.307 89.6563 251.736 89.8751C252.168 90.091 252.502 90.3822 252.738 90.7487C252.973 91.1151 253.091 91.52 253.091 91.9632C253.094 92.4546 252.949 92.8666 252.657 93.199C252.367 93.5313 251.986 93.7487 251.515 93.8509V93.9191C252.128 94.0044 252.598 94.2316 252.925 94.6009C253.255 94.9674 253.418 95.4234 253.415 95.9688C253.415 96.4575 253.276 96.895 252.998 97.2813C252.722 97.6649 252.341 97.966 251.855 98.1847C251.373 98.4035 250.819 98.5129 250.194 98.5129Z" fill="white"/>
<path d="M264.138 98.5129C263.576 98.5129 263.074 98.4163 262.634 98.2231C262.196 98.0299 261.848 97.7615 261.59 97.4177C261.334 97.0711 261.195 96.6691 261.172 96.2117H262.246C262.269 96.493 262.365 96.7359 262.536 96.9404C262.706 97.1421 262.929 97.2984 263.205 97.4092C263.48 97.52 263.786 97.5754 264.121 97.5754C264.496 97.5754 264.829 97.51 265.118 97.3794C265.408 97.2487 265.635 97.0669 265.8 96.8339C265.965 96.6009 266.047 96.3311 266.047 96.0242C266.047 95.7032 265.968 95.4205 265.809 95.1762C265.65 94.9291 265.417 94.7359 265.11 94.5967C264.803 94.4575 264.428 94.3879 263.985 94.3879H263.286V93.4504H263.985C264.331 93.4504 264.635 93.3879 264.897 93.2629C265.161 93.1379 265.367 92.9617 265.515 92.7345C265.665 92.5072 265.74 92.2401 265.74 91.9333C265.74 91.6379 265.675 91.3808 265.544 91.162C265.414 90.9433 265.229 90.7728 264.99 90.6507C264.755 90.5285 264.476 90.4674 264.155 90.4674C263.854 90.4674 263.57 90.5228 263.303 90.6336C263.039 90.7416 262.823 90.8992 262.655 91.1066C262.488 91.3112 262.397 91.5583 262.382 91.8481H261.36C261.377 91.3907 261.515 90.9901 261.773 90.6464C262.032 90.2998 262.37 90.0299 262.787 89.8367C263.208 89.6436 263.669 89.547 264.172 89.547C264.712 89.547 265.175 89.6563 265.561 89.8751C265.948 90.091 266.245 90.3765 266.452 90.7316C266.659 91.0867 266.763 91.4703 266.763 91.8822C266.763 92.3737 266.634 92.7927 266.375 93.1393C266.12 93.4859 265.772 93.7259 265.331 93.8595V93.9276C265.882 94.0186 266.313 94.2529 266.623 94.6308C266.932 95.0058 267.087 95.4703 267.087 96.0242C267.087 96.4987 266.958 96.9248 266.699 97.3026C266.444 97.6776 266.094 97.9731 265.651 98.189C265.208 98.4049 264.704 98.5129 264.138 98.5129ZM269.31 98.4617C269.1 98.4617 268.92 98.3865 268.769 98.2359C268.619 98.0853 268.543 97.9049 268.543 97.6947C268.543 97.4845 268.619 97.3041 268.769 97.1535C268.92 97.0029 269.1 96.9276 269.31 96.9276C269.521 96.9276 269.701 97.0029 269.852 97.1535C270.002 97.3041 270.077 97.4845 270.077 97.6947C270.077 97.8339 270.042 97.9617 269.971 98.0782C269.903 98.1947 269.81 98.2884 269.694 98.3595C269.58 98.4276 269.452 98.4617 269.31 98.4617ZM274.486 98.5129C273.923 98.5129 273.422 98.4163 272.982 98.2231C272.544 98.0299 272.196 97.7615 271.938 97.4177C271.682 97.0711 271.543 96.6691 271.52 96.2117H272.594C272.616 96.493 272.713 96.7359 272.884 96.9404C273.054 97.1421 273.277 97.2984 273.553 97.4092C273.828 97.52 274.134 97.5754 274.469 97.5754C274.844 97.5754 275.176 97.51 275.466 97.3794C275.756 97.2487 275.983 97.0669 276.148 96.8339C276.313 96.6009 276.395 96.3311 276.395 96.0242C276.395 95.7032 276.315 95.4205 276.156 95.1762C275.997 94.9291 275.764 94.7359 275.457 94.5967C275.151 94.4575 274.776 94.3879 274.332 94.3879H273.634V93.4504H274.332C274.679 93.4504 274.983 93.3879 275.244 93.2629C275.509 93.1379 275.715 92.9617 275.862 92.7345C276.013 92.5072 276.088 92.2401 276.088 91.9333C276.088 91.6379 276.023 91.3808 275.892 91.162C275.761 90.9433 275.577 90.7728 275.338 90.6507C275.102 90.5285 274.824 90.4674 274.503 90.4674C274.202 90.4674 273.918 90.5228 273.651 90.6336C273.386 90.7416 273.17 90.8992 273.003 91.1066C272.835 91.3112 272.744 91.5583 272.73 91.8481H271.707C271.724 91.3907 271.862 90.9901 272.121 90.6464C272.379 90.2998 272.717 90.0299 273.135 89.8367C273.555 89.6436 274.017 89.547 274.52 89.547C275.06 89.547 275.523 89.6563 275.909 89.8751C276.295 90.091 276.592 90.3765 276.8 90.7316C277.007 91.0867 277.111 91.4703 277.111 91.8822C277.111 92.3737 276.982 92.7927 276.723 93.1393C276.467 93.4859 276.119 93.7259 275.679 93.8595V93.9276C276.23 94.0186 276.661 94.2529 276.97 94.6308C277.28 95.0058 277.435 95.4703 277.435 96.0242C277.435 96.4987 277.305 96.9248 277.047 97.3026C276.791 97.6776 276.442 97.9731 275.999 98.189C275.555 98.4049 275.051 98.5129 274.486 98.5129ZM279.45 98.3936L283.354 90.672V90.6038H278.854V89.6663H284.445V90.6549L280.558 98.3936H279.45ZM290.482 96.7572V96.297C290.482 95.9788 290.547 95.6876 290.678 95.4234C290.811 95.1563 291.005 94.9433 291.257 94.7842C291.513 94.6222 291.823 94.5413 292.186 94.5413C292.556 94.5413 292.865 94.6222 293.115 94.7842C293.365 94.9433 293.554 95.1563 293.682 95.4234C293.81 95.6876 293.874 95.9788 293.874 96.297V96.7572C293.874 97.0754 293.809 97.368 293.678 97.635C293.55 97.8992 293.36 98.1123 293.107 98.2742C292.857 98.4333 292.55 98.5129 292.186 98.5129C291.817 98.5129 291.506 98.4333 291.253 98.2742C291 98.1123 290.809 97.8992 290.678 97.635C290.547 97.368 290.482 97.0754 290.482 96.7572ZM291.351 96.297V96.7572C291.351 97.0214 291.414 97.2586 291.539 97.4688C291.664 97.6762 291.88 97.7799 292.186 97.7799C292.485 97.7799 292.695 97.6762 292.817 97.4688C292.942 97.2586 293.005 97.0214 293.005 96.7572V96.297C293.005 96.0328 292.945 95.797 292.826 95.5896C292.706 95.3794 292.493 95.2742 292.186 95.2742C291.888 95.2742 291.674 95.3794 291.543 95.5896C291.415 95.797 291.351 96.0328 291.351 96.297ZM286.135 91.7629V91.3026C286.135 90.9845 286.201 90.6933 286.331 90.4291C286.465 90.162 286.658 89.949 286.911 89.7899C287.167 89.6279 287.476 89.547 287.84 89.547C288.209 89.547 288.519 89.6279 288.769 89.7899C289.019 89.949 289.208 90.162 289.336 90.4291C289.463 90.6933 289.527 90.9845 289.527 91.3026V91.7629C289.527 92.0811 289.462 92.3737 289.331 92.6407C289.204 92.9049 289.013 93.118 288.76 93.2799C288.51 93.439 288.204 93.5186 287.84 93.5186C287.471 93.5186 287.159 93.439 286.907 93.2799C286.654 93.118 286.462 92.9049 286.331 92.6407C286.201 92.3737 286.135 92.0811 286.135 91.7629ZM287.005 91.3026V91.7629C287.005 92.0271 287.067 92.2643 287.192 92.4745C287.317 92.6819 287.533 92.7856 287.84 92.7856C288.138 92.7856 288.348 92.6819 288.471 92.4745C288.596 92.2643 288.658 92.0271 288.658 91.7629V91.3026C288.658 91.0384 288.598 90.8026 288.479 90.5953C288.36 90.385 288.147 90.2799 287.84 90.2799C287.542 90.2799 287.327 90.385 287.196 90.5953C287.069 90.8026 287.005 91.0384 287.005 91.3026ZM286.459 98.3936L292.459 89.6663H293.431L287.431 98.3936H286.459Z" fill="white"/>
<path d="M279.256 204.739C277.989 204.739 276.864 204.526 275.881 204.099C274.903 203.673 274.136 203.091 273.58 202.352C273.028 201.608 272.756 200.764 272.761 199.821C272.756 199.088 272.915 198.415 273.239 197.801C273.563 197.188 274 196.676 274.551 196.267C275.108 195.852 275.727 195.588 276.409 195.474V195.355C275.511 195.156 274.784 194.699 274.227 193.983C273.676 193.261 273.403 192.429 273.409 191.486C273.403 190.588 273.653 189.787 274.159 189.082C274.665 188.378 275.358 187.824 276.239 187.42C277.119 187.011 278.125 186.807 279.256 186.807C280.375 186.807 281.372 187.011 282.247 187.42C283.128 187.824 283.821 188.378 284.327 189.082C284.838 189.787 285.094 190.588 285.094 191.486C285.094 192.429 284.812 193.261 284.25 193.983C283.693 194.699 282.974 195.156 282.094 195.355V195.474C282.776 195.588 283.389 195.852 283.935 196.267C284.486 196.676 284.923 197.188 285.247 197.801C285.577 198.415 285.741 199.088 285.741 199.821C285.741 200.764 285.463 201.608 284.906 202.352C284.349 203.091 283.582 203.673 282.605 204.099C281.634 204.526 280.517 204.739 279.256 204.739ZM279.256 202.301C279.909 202.301 280.477 202.19 280.96 201.969C281.443 201.741 281.818 201.423 282.085 201.014C282.352 200.605 282.489 200.134 282.494 199.599C282.489 199.043 282.344 198.551 282.06 198.125C281.781 197.693 281.398 197.355 280.909 197.111C280.426 196.866 279.875 196.744 279.256 196.744C278.631 196.744 278.074 196.866 277.585 197.111C277.097 197.355 276.71 197.693 276.426 198.125C276.148 198.551 276.011 199.043 276.017 199.599C276.011 200.134 276.142 200.605 276.409 201.014C276.676 201.418 277.051 201.733 277.534 201.96C278.023 202.187 278.597 202.301 279.256 202.301ZM279.256 194.349C279.79 194.349 280.261 194.241 280.67 194.026C281.085 193.81 281.412 193.509 281.651 193.122C281.889 192.736 282.011 192.29 282.017 191.784C282.011 191.284 281.892 190.847 281.659 190.472C281.426 190.091 281.102 189.798 280.688 189.594C280.273 189.384 279.795 189.278 279.256 189.278C278.705 189.278 278.219 189.384 277.798 189.594C277.384 189.798 277.06 190.091 276.827 190.472C276.599 190.847 276.489 191.284 276.494 191.784C276.489 192.29 276.602 192.736 276.835 193.122C277.074 193.503 277.401 193.804 277.815 194.026C278.236 194.241 278.716 194.349 279.256 194.349ZM294.603 186.807C295.438 186.812 296.251 186.96 297.04 187.25C297.836 187.534 298.552 188 299.188 188.648C299.825 189.29 300.33 190.151 300.705 191.23C301.08 192.31 301.268 193.645 301.268 195.236C301.273 196.736 301.114 198.077 300.79 199.259C300.472 200.435 300.015 201.429 299.418 202.241C298.822 203.054 298.103 203.673 297.262 204.099C296.421 204.526 295.475 204.739 294.424 204.739C293.322 204.739 292.344 204.523 291.492 204.091C290.646 203.659 289.961 203.068 289.438 202.318C288.915 201.568 288.594 200.71 288.475 199.744H291.586C291.745 200.437 292.069 200.989 292.558 201.398C293.052 201.801 293.674 202.003 294.424 202.003C295.634 202.003 296.566 201.477 297.219 200.426C297.873 199.375 298.2 197.915 298.2 196.045H298.08C297.802 196.545 297.441 196.977 296.998 197.341C296.555 197.699 296.052 197.974 295.489 198.168C294.933 198.361 294.342 198.457 293.717 198.457C292.694 198.457 291.773 198.213 290.955 197.724C290.143 197.236 289.498 196.565 289.021 195.713C288.549 194.861 288.31 193.886 288.305 192.79C288.305 191.653 288.566 190.634 289.089 189.73C289.617 188.821 290.353 188.105 291.296 187.582C292.239 187.054 293.342 186.795 294.603 186.807ZM294.612 189.364C293.998 189.364 293.444 189.514 292.95 189.815C292.461 190.111 292.075 190.514 291.79 191.026C291.512 191.531 291.373 192.097 291.373 192.722C291.379 193.341 291.518 193.903 291.79 194.409C292.069 194.915 292.447 195.315 292.924 195.611C293.407 195.906 293.958 196.054 294.577 196.054C295.038 196.054 295.467 195.966 295.864 195.79C296.262 195.614 296.609 195.369 296.904 195.057C297.205 194.739 297.438 194.378 297.603 193.974C297.773 193.571 297.856 193.145 297.85 192.696C297.85 192.099 297.708 191.548 297.424 191.043C297.146 190.537 296.762 190.131 296.273 189.824C295.79 189.517 295.237 189.364 294.612 189.364Z" fill="black" fill-opacity="0.9"/>
<circle cx="584" cy="160" r="3.5" fill="#8979FF" stroke="#CAC7E9"/>
<path d="M598.642 164.5L596.256 155.773H597.33L599.153 162.881H599.239L601.097 155.773H602.29L604.148 162.881H604.233L606.057 155.773H607.131L604.744 164.5H603.653L601.727 157.545H601.659L599.733 164.5H598.642ZM610.446 164.636C609.815 164.636 609.271 164.497 608.814 164.219C608.359 163.938 608.009 163.545 607.761 163.043C607.517 162.537 607.395 161.949 607.395 161.278C607.395 160.608 607.517 160.017 607.761 159.506C608.009 158.991 608.352 158.591 608.793 158.304C609.236 158.014 609.753 157.869 610.344 157.869C610.685 157.869 611.021 157.926 611.354 158.04C611.686 158.153 611.989 158.338 612.261 158.594C612.534 158.847 612.751 159.182 612.913 159.599C613.075 160.017 613.156 160.531 613.156 161.142V161.568H608.111V160.699H612.134C612.134 160.33 612.06 160 611.912 159.71C611.767 159.42 611.56 159.192 611.29 159.024C611.023 158.857 610.707 158.773 610.344 158.773C609.943 158.773 609.597 158.872 609.304 159.071C609.014 159.267 608.791 159.523 608.635 159.838C608.479 160.153 608.401 160.491 608.401 160.852V161.432C608.401 161.926 608.486 162.345 608.656 162.689C608.83 163.03 609.07 163.29 609.376 163.469C609.683 163.645 610.04 163.733 610.446 163.733C610.71 163.733 610.949 163.696 611.162 163.622C611.378 163.545 611.564 163.432 611.72 163.281C611.876 163.128 611.997 162.937 612.082 162.71L613.054 162.983C612.952 163.312 612.78 163.602 612.538 163.852C612.297 164.099 611.999 164.293 611.643 164.432C611.288 164.568 610.889 164.636 610.446 164.636ZM614.822 164.5V155.773H615.828V158.994H615.913C615.987 158.881 616.089 158.736 616.22 158.56C616.354 158.381 616.544 158.222 616.791 158.082C617.041 157.94 617.379 157.869 617.805 157.869C618.357 157.869 618.842 158.007 619.263 158.283C619.683 158.558 620.011 158.949 620.247 159.455C620.483 159.96 620.601 160.557 620.601 161.244C620.601 161.938 620.483 162.538 620.247 163.047C620.011 163.553 619.685 163.945 619.267 164.223C618.849 164.499 618.368 164.636 617.822 164.636C617.402 164.636 617.065 164.567 616.812 164.428C616.56 164.286 616.365 164.125 616.229 163.946C616.092 163.764 615.987 163.614 615.913 163.494H615.794V164.5H614.822ZM615.811 161.227C615.811 161.722 615.884 162.158 616.028 162.536C616.173 162.911 616.385 163.205 616.663 163.418C616.942 163.628 617.283 163.733 617.686 163.733C618.107 163.733 618.457 163.622 618.739 163.401C619.023 163.176 619.236 162.875 619.378 162.497C619.523 162.116 619.595 161.693 619.595 161.227C619.595 160.767 619.524 160.352 619.382 159.983C619.243 159.611 619.031 159.317 618.747 159.101C618.466 158.882 618.112 158.773 617.686 158.773C617.277 158.773 616.933 158.876 616.655 159.084C616.376 159.288 616.166 159.575 616.024 159.945C615.882 160.311 615.811 160.739 615.811 161.227Z" fill="black" fill-opacity="0.7"/>
<circle cx="584" cy="184" r="3.5" fill="#FF928A" stroke="#CAC7E9"/>
<path d="M597.415 188.5H596.307L599.511 179.773H600.602L603.807 188.5H602.699L600.091 181.153H600.023L597.415 188.5ZM597.824 185.091H602.29V186.028H597.824V185.091ZM605.763 188.568C605.553 188.568 605.372 188.493 605.222 188.342C605.071 188.192 604.996 188.011 604.996 187.801C604.996 187.591 605.071 187.411 605.222 187.26C605.372 187.109 605.553 187.034 605.763 187.034C605.973 187.034 606.153 187.109 606.304 187.26C606.455 187.411 606.53 187.591 606.53 187.801C606.53 187.94 606.494 188.068 606.423 188.185C606.355 188.301 606.263 188.395 606.146 188.466C606.033 188.534 605.905 188.568 605.763 188.568ZM609.528 179.773V188.5H608.471V179.773H609.528Z" fill="black" fill-opacity="0.7"/>
<circle cx="584" cy="208" r="3.5" fill="#3CC3DF" stroke="#CAC7E9"/>
<path d="M599.75 212.5H597.057V203.773H599.869C600.716 203.773 601.44 203.947 602.043 204.297C602.645 204.643 603.107 205.142 603.428 205.793C603.749 206.44 603.909 207.216 603.909 208.119C603.909 209.028 603.747 209.811 603.423 210.467C603.099 211.121 602.628 211.624 602.009 211.976C601.389 212.325 600.636 212.5 599.75 212.5ZM598.114 211.562H599.682C600.403 211.562 601.001 211.423 601.476 211.145C601.95 210.866 602.304 210.47 602.537 209.956C602.77 209.442 602.886 208.83 602.886 208.119C602.886 207.415 602.771 206.808 602.541 206.3C602.311 205.788 601.967 205.396 601.51 205.124C601.053 204.848 600.483 204.71 599.801 204.71H598.114V211.562ZM607.472 212.653C607.057 212.653 606.68 212.575 606.342 212.419C606.004 212.26 605.736 212.031 605.537 211.733C605.338 211.432 605.239 211.068 605.239 210.642C605.239 210.267 605.313 209.963 605.46 209.73C605.608 209.494 605.805 209.31 606.053 209.176C606.3 209.043 606.572 208.943 606.871 208.878C607.172 208.81 607.474 208.756 607.778 208.716C608.176 208.665 608.499 208.626 608.746 208.601C608.996 208.572 609.178 208.526 609.291 208.46C609.408 208.395 609.466 208.281 609.466 208.119V208.085C609.466 207.665 609.351 207.338 609.121 207.105C608.893 206.872 608.548 206.756 608.085 206.756C607.605 206.756 607.229 206.861 606.956 207.071C606.683 207.281 606.491 207.506 606.381 207.744L605.426 207.403C605.597 207.006 605.824 206.696 606.108 206.474C606.395 206.25 606.707 206.094 607.045 206.006C607.386 205.915 607.722 205.869 608.051 205.869C608.261 205.869 608.503 205.895 608.776 205.946C609.051 205.994 609.317 206.095 609.572 206.249C609.831 206.402 610.045 206.634 610.216 206.943C610.386 207.253 610.472 207.668 610.472 208.188V212.5H609.466V211.614H609.415C609.347 211.756 609.233 211.908 609.074 212.07C608.915 212.232 608.703 212.369 608.439 212.483C608.175 212.597 607.852 212.653 607.472 212.653ZM607.625 211.75C608.023 211.75 608.358 211.672 608.631 211.516C608.906 211.359 609.114 211.158 609.253 210.911C609.395 210.663 609.466 210.403 609.466 210.131V209.21C609.423 209.261 609.33 209.308 609.185 209.351C609.043 209.391 608.878 209.426 608.69 209.457C608.506 209.486 608.325 209.511 608.149 209.534C607.976 209.554 607.835 209.571 607.727 209.585C607.466 209.619 607.222 209.675 606.994 209.751C606.77 209.825 606.588 209.937 606.449 210.088C606.313 210.236 606.244 210.437 606.244 210.693C606.244 211.043 606.374 211.307 606.632 211.486C606.893 211.662 607.224 211.75 607.625 211.75ZM615.154 205.955V206.807H611.762V205.955H615.154ZM612.75 204.386H613.756V210.625C613.756 210.909 613.797 211.122 613.88 211.264C613.965 211.403 614.073 211.497 614.203 211.545C614.337 211.591 614.478 211.614 614.625 211.614C614.736 211.614 614.827 211.608 614.898 211.597C614.969 211.582 615.026 211.571 615.069 211.562L615.273 212.466C615.205 212.491 615.11 212.517 614.988 212.543C614.865 212.571 614.711 212.585 614.523 212.585C614.239 212.585 613.961 212.524 613.688 212.402C613.418 212.28 613.194 212.094 613.015 211.844C612.838 211.594 612.75 211.278 612.75 210.898V204.386ZM618.593 212.653C618.178 212.653 617.801 212.575 617.463 212.419C617.125 212.26 616.857 212.031 616.658 211.733C616.459 211.432 616.36 211.068 616.36 210.642C616.36 210.267 616.434 209.963 616.581 209.73C616.729 209.494 616.926 209.31 617.174 209.176C617.421 209.043 617.694 208.943 617.992 208.878C618.293 208.81 618.596 208.756 618.9 208.716C619.297 208.665 619.62 208.626 619.867 208.601C620.117 208.572 620.299 208.526 620.412 208.46C620.529 208.395 620.587 208.281 620.587 208.119V208.085C620.587 207.665 620.472 207.338 620.242 207.105C620.015 206.872 619.669 206.756 619.206 206.756C618.726 206.756 618.35 206.861 618.077 207.071C617.804 207.281 617.613 207.506 617.502 207.744L616.547 207.403C616.718 207.006 616.945 206.696 617.229 206.474C617.516 206.25 617.828 206.094 618.167 206.006C618.507 205.915 618.843 205.869 619.172 205.869C619.382 205.869 619.624 205.895 619.897 205.946C620.172 205.994 620.438 206.095 620.694 206.249C620.952 206.402 621.167 206.634 621.337 206.943C621.507 207.253 621.593 207.668 621.593 208.188V212.5H620.587V211.614H620.536C620.468 211.756 620.354 211.908 620.195 212.07C620.036 212.232 619.824 212.369 619.56 212.483C619.296 212.597 618.973 212.653 618.593 212.653ZM618.746 211.75C619.144 211.75 619.479 211.672 619.752 211.516C620.027 211.359 620.235 211.158 620.374 210.911C620.516 210.663 620.587 210.403 620.587 210.131V209.21C620.544 209.261 620.451 209.308 620.306 209.351C620.164 209.391 619.999 209.426 619.811 209.457C619.627 209.486 619.446 209.511 619.27 209.534C619.097 209.554 618.956 209.571 618.848 209.585C618.587 209.619 618.343 209.675 618.115 209.751C617.891 209.825 617.709 209.937 617.57 210.088C617.434 210.236 617.365 210.437 617.365 210.693C617.365 211.043 617.495 211.307 617.753 211.486C618.015 211.662 618.346 211.75 618.746 211.75ZM631.712 205.955C631.661 205.523 631.454 205.188 631.09 204.949C630.727 204.71 630.281 204.591 629.752 204.591C629.366 204.591 629.028 204.653 628.738 204.778C628.451 204.903 628.227 205.075 628.065 205.294C627.906 205.513 627.826 205.761 627.826 206.04C627.826 206.273 627.881 206.473 627.992 206.641C628.106 206.805 628.251 206.943 628.427 207.054C628.603 207.162 628.788 207.251 628.981 207.322C629.174 207.391 629.352 207.446 629.513 207.489L630.4 207.727C630.627 207.787 630.88 207.869 631.158 207.974C631.44 208.08 631.708 208.223 631.964 208.405C632.222 208.584 632.435 208.814 632.603 209.095C632.771 209.376 632.854 209.722 632.854 210.131C632.854 210.602 632.731 211.028 632.484 211.409C632.239 211.79 631.881 212.092 631.41 212.317C630.941 212.541 630.371 212.653 629.701 212.653C629.076 212.653 628.535 212.553 628.077 212.351C627.623 212.149 627.265 211.868 627.004 211.507C626.745 211.146 626.599 210.727 626.565 210.25H627.656C627.684 210.58 627.795 210.852 627.988 211.068C628.184 211.281 628.431 211.44 628.729 211.545C629.031 211.648 629.354 211.699 629.701 211.699C630.104 211.699 630.467 211.634 630.788 211.503C631.109 211.369 631.363 211.185 631.55 210.949C631.738 210.71 631.832 210.432 631.832 210.114C631.832 209.824 631.751 209.588 631.589 209.406C631.427 209.224 631.214 209.077 630.95 208.963C630.685 208.849 630.4 208.75 630.093 208.665L629.019 208.358C628.337 208.162 627.798 207.882 627.4 207.518C627.002 207.155 626.803 206.679 626.803 206.091C626.803 205.602 626.935 205.176 627.2 204.812C627.467 204.446 627.825 204.162 628.273 203.96C628.725 203.756 629.229 203.653 629.786 203.653C630.349 203.653 630.849 203.754 631.286 203.956C631.724 204.155 632.07 204.428 632.326 204.774C632.585 205.121 632.721 205.514 632.735 205.955H631.712ZM637.115 212.636C636.501 212.636 635.973 212.491 635.529 212.202C635.086 211.912 634.745 211.513 634.507 211.004C634.268 210.496 634.149 209.915 634.149 209.261C634.149 208.597 634.271 208.01 634.515 207.501C634.762 206.99 635.106 206.591 635.547 206.304C635.99 206.014 636.507 205.869 637.098 205.869C637.558 205.869 637.973 205.955 638.342 206.125C638.711 206.295 639.014 206.534 639.25 206.841C639.485 207.148 639.632 207.506 639.689 207.915H638.683C638.606 207.616 638.436 207.352 638.172 207.122C637.91 206.889 637.558 206.773 637.115 206.773C636.723 206.773 636.379 206.875 636.083 207.08C635.791 207.281 635.562 207.567 635.397 207.936C635.235 208.303 635.154 208.733 635.154 209.227C635.154 209.733 635.234 210.173 635.393 210.548C635.555 210.923 635.782 211.214 636.075 211.422C636.37 211.629 636.717 211.733 637.115 211.733C637.376 211.733 637.613 211.688 637.826 211.597C638.039 211.506 638.22 211.375 638.368 211.205C638.515 211.034 638.62 210.83 638.683 210.591H639.689C639.632 210.977 639.491 211.325 639.267 211.635C639.045 211.942 638.751 212.186 638.385 212.368C638.021 212.547 637.598 212.636 637.115 212.636ZM641.159 212.5V205.955H642.164V212.5H641.159ZM641.67 204.864C641.474 204.864 641.305 204.797 641.163 204.663C641.024 204.53 640.954 204.369 640.954 204.182C640.954 203.994 641.024 203.834 641.163 203.7C641.305 203.567 641.474 203.5 641.67 203.5C641.866 203.5 642.034 203.567 642.173 203.7C642.315 203.834 642.386 203.994 642.386 204.182C642.386 204.369 642.315 204.53 642.173 204.663C642.034 204.797 641.866 204.864 641.67 204.864ZM646.751 212.636C646.12 212.636 645.576 212.497 645.119 212.219C644.664 211.938 644.313 211.545 644.066 211.043C643.822 210.537 643.7 209.949 643.7 209.278C643.7 208.608 643.822 208.017 644.066 207.506C644.313 206.991 644.657 206.591 645.097 206.304C645.54 206.014 646.058 205.869 646.648 205.869C646.989 205.869 647.326 205.926 647.658 206.04C647.991 206.153 648.293 206.338 648.566 206.594C648.839 206.847 649.056 207.182 649.218 207.599C649.38 208.017 649.461 208.531 649.461 209.142V209.568H644.415V208.699H648.438C648.438 208.33 648.364 208 648.217 207.71C648.072 207.42 647.864 207.192 647.594 207.024C647.327 206.857 647.012 206.773 646.648 206.773C646.248 206.773 645.901 206.872 645.609 207.071C645.319 207.267 645.096 207.523 644.94 207.838C644.783 208.153 644.705 208.491 644.705 208.852V209.432C644.705 209.926 644.79 210.345 644.961 210.689C645.134 211.03 645.374 211.29 645.681 211.469C645.988 211.645 646.344 211.733 646.751 211.733C647.015 211.733 647.254 211.696 647.467 211.622C647.683 211.545 647.869 211.432 648.025 211.281C648.181 211.128 648.302 210.937 648.387 210.71L649.359 210.983C649.256 211.312 649.085 211.602 648.843 211.852C648.602 212.099 648.303 212.293 647.948 212.432C647.593 212.568 647.194 212.636 646.751 212.636ZM651.996 208.562V212.5H650.991V205.955H651.962V206.977H652.048C652.201 206.645 652.434 206.378 652.746 206.176C653.059 205.972 653.462 205.869 653.957 205.869C654.4 205.869 654.788 205.96 655.12 206.142C655.452 206.321 655.711 206.594 655.896 206.96C656.08 207.324 656.173 207.784 656.173 208.341V212.5H655.167V208.409C655.167 207.895 655.033 207.494 654.766 207.207C654.499 206.918 654.133 206.773 653.667 206.773C653.346 206.773 653.059 206.842 652.806 206.982C652.556 207.121 652.359 207.324 652.214 207.591C652.069 207.858 651.996 208.182 651.996 208.562ZM660.669 212.636C660.056 212.636 659.527 212.491 659.084 212.202C658.641 211.912 658.3 211.513 658.061 211.004C657.823 210.496 657.703 209.915 657.703 209.261C657.703 208.597 657.826 208.01 658.07 207.501C658.317 206.99 658.661 206.591 659.101 206.304C659.544 206.014 660.061 205.869 660.652 205.869C661.113 205.869 661.527 205.955 661.897 206.125C662.266 206.295 662.569 206.534 662.804 206.841C663.04 207.148 663.186 207.506 663.243 207.915H662.238C662.161 207.616 661.99 207.352 661.726 207.122C661.465 206.889 661.113 206.773 660.669 206.773C660.277 206.773 659.934 206.875 659.638 207.08C659.346 207.281 659.117 207.567 658.952 207.936C658.79 208.303 658.709 208.733 658.709 209.227C658.709 209.733 658.789 210.173 658.948 210.548C659.11 210.923 659.337 211.214 659.63 211.422C659.925 211.629 660.272 211.733 660.669 211.733C660.931 211.733 661.168 211.688 661.381 211.597C661.594 211.506 661.775 211.375 661.922 211.205C662.07 211.034 662.175 210.83 662.238 210.591H663.243C663.186 210.977 663.046 211.325 662.821 211.635C662.6 211.942 662.306 212.186 661.939 212.368C661.576 212.547 661.152 212.636 660.669 212.636ZM667.458 212.636C666.827 212.636 666.283 212.497 665.826 212.219C665.371 211.938 665.02 211.545 664.773 211.043C664.529 210.537 664.407 209.949 664.407 209.278C664.407 208.608 664.529 208.017 664.773 207.506C665.02 206.991 665.364 206.591 665.804 206.304C666.248 206.014 666.765 205.869 667.355 205.869C667.696 205.869 668.033 205.926 668.365 206.04C668.698 206.153 669 206.338 669.273 206.594C669.546 206.847 669.763 207.182 669.925 207.599C670.087 208.017 670.168 208.531 670.168 209.142V209.568H665.123V208.699H669.145C669.145 208.33 669.071 208 668.924 207.71C668.779 207.42 668.571 207.192 668.301 207.024C668.034 206.857 667.719 206.773 667.355 206.773C666.955 206.773 666.608 206.872 666.316 207.071C666.026 207.267 665.803 207.523 665.647 207.838C665.49 208.153 665.412 208.491 665.412 208.852V209.432C665.412 209.926 665.498 210.345 665.668 210.689C665.841 211.03 666.081 211.29 666.388 211.469C666.695 211.645 667.051 211.733 667.458 211.733C667.722 211.733 667.961 211.696 668.174 211.622C668.39 211.545 668.576 211.432 668.732 211.281C668.888 211.128 669.009 210.937 669.094 210.71L670.066 210.983C669.963 211.312 669.792 211.602 669.55 211.852C669.309 212.099 669.01 212.293 668.655 212.432C668.3 212.568 667.901 212.636 667.458 212.636Z" fill="black" fill-opacity="0.7"/>
<circle cx="584" cy="232" r="3.5" fill="#FFAE4C" stroke="#CAC7E9"/>
<path d="M602.784 227.773H603.841V233.551C603.841 234.148 603.7 234.68 603.419 235.149C603.141 235.615 602.747 235.983 602.239 236.253C601.73 236.52 601.134 236.653 600.449 236.653C599.764 236.653 599.168 236.52 598.659 236.253C598.151 235.983 597.756 235.615 597.474 235.149C597.196 234.68 597.057 234.148 597.057 233.551V227.773H598.114V233.466C598.114 233.892 598.207 234.271 598.395 234.604C598.582 234.933 598.849 235.193 599.196 235.384C599.545 235.571 599.963 235.665 600.449 235.665C600.935 235.665 601.352 235.571 601.702 235.384C602.051 235.193 602.318 234.933 602.503 234.604C602.69 234.271 602.784 233.892 602.784 233.466V227.773ZM607.008 227.773V236.5H605.951V227.773H607.008ZM612.076 227.364L609.263 237.812H608.343L611.156 227.364H612.076ZM619.132 227.773H620.189V233.551C620.189 234.148 620.048 234.68 619.767 235.149C619.488 235.615 619.095 235.983 618.586 236.253C618.078 236.52 617.481 236.653 616.797 236.653C616.112 236.653 615.515 236.52 615.007 236.253C614.498 235.983 614.103 235.615 613.822 235.149C613.544 234.68 613.404 234.148 613.404 233.551V227.773H614.461V233.466C614.461 233.892 614.555 234.271 614.743 234.604C614.93 234.933 615.197 235.193 615.544 235.384C615.893 235.571 616.311 235.665 616.797 235.665C617.282 235.665 617.7 235.571 618.049 235.384C618.399 235.193 618.666 234.933 618.85 234.604C619.038 234.271 619.132 233.892 619.132 233.466V227.773ZM622.81 227.773L625.06 231.403H625.129L627.379 227.773H628.623L625.879 232.136L628.623 236.5H627.379L625.129 232.938H625.06L622.81 236.5H621.566L624.379 232.136L621.566 227.773H622.81Z" fill="black" fill-opacity="0.7"/>
<g filter="url(#filter0_dd_148_3450)">
<rect x="11" y="11" width="685" height="347" rx="20" fill="#193BAC" fill-opacity="0.08" shape-rendering="crispEdges"/>
</g>
<defs>
<filter id="filter0_dd_148_3450" x="0" y="0" width="737" height="399" filterUnits="userSpaceOnUse" color-interpolation-filters="sRGB">
<feFlood flood-opacity="0" result="BackgroundImageFix"/>
<feColorMatrix in="SourceAlpha" type="matrix" values="0 0 0 0 0 0 0 0 0 0 0 0 0 0 0 0 0 0 127 0" result="hardAlpha"/>
<feMorphology radius="4" operator="erode" in="SourceAlpha" result="effect1_dropShadow_148_3450"/>
<feOffset dx="2" dy="2"/>
<feGaussianBlur stdDeviation="2"/>
<feComposite in2="hardAlpha" operator="out"/>
<feColorMatrix type="matrix" values="0 0 0 0 0.0470588 0 0 0 0 0.0470588 0 0 0 0 0.0509804 0 0 0 0.05 0"/>
<feBlend mode="normal" in2="BackgroundImageFix" result="effect1_dropShadow_148_3450"/>
<feColorMatrix in="SourceAlpha" type="matrix" values="0 0 0 0 0 0 0 0 0 0 0 0 0 0 0 0 0 0 127 0" result="hardAlpha"/>
<feMorphology radius="4" operator="erode" in="SourceAlpha" result="effect2_dropShadow_148_3450"/>
<feOffset dx="15" dy="15"/>
<feGaussianBlur stdDeviation="15"/>
<feComposite in2="hardAlpha" operator="out"/>
<feColorMatrix type="matrix" values="0 0 0 0 0.0470588 0 0 0 0 0.0470588 0 0 0 0 0.0509804 0 0 0 0.1 0"/>
<feBlend mode="normal" in2="effect1_dropShadow_148_3450" result="effect2_dropShadow_148_3450"/>
<feBlend mode="normal" in="SourceGraphic" in2="effect2_dropShadow_148_3450" result="shape"/>
</filter>
<linearGradient id="paint0_linear_148_3450" x1="287.498" y1="54.9646" x2="241.792" y2="54.9646" gradientUnits="userSpaceOnUse">
<stop stop-color="#FF9F2A"/>
<stop offset="0.5" stop-color="#FFA335"/>
<stop offset="1" stop-color="#FFA640"/>
</linearGradient>
<linearGradient id="paint1_linear_148_3450" x1="269.215" y1="101.305" x2="241.792" y2="101.305" gradientUnits="userSpaceOnUse">
<stop stop-color="#FE8400"/>
<stop offset="1" stop-color="#FE8400"/>
</linearGradient>
<linearGradient id="paint2_linear_148_3450" x1="287.498" y1="145.264" x2="269.215" y2="145.264" gradientUnits="userSpaceOnUse">
<stop stop-color="#FF9F2A"/>
<stop offset="0.5" stop-color="#FFA335"/>
<stop offset="1" stop-color="#FFA640"/>
</linearGradient>
<linearGradient id="paint3_linear_148_3450" x1="428.563" y1="70.2037" x2="287.501" y2="70.2037" gradientUnits="userSpaceOnUse">
<stop stop-color="#350CFF"/>
<stop offset="0.5" stop-color="#5235FF"/>
<stop offset="1" stop-color="#6D5AFF"/>
</linearGradient>
<linearGradient id="paint4_linear_148_3450" x1="428.556" y1="123.14" x2="343.918" y2="123.14" gradientUnits="userSpaceOnUse">
<stop stop-color="#CABFFF"/>
<stop offset="1" stop-color="#CABFFF"/>
</linearGradient>
<linearGradient id="paint5_linear_148_3450" x1="343.926" y1="150.61" x2="287.501" y2="150.61" gradientUnits="userSpaceOnUse">
<stop stop-color="#350CFF"/>
<stop offset="0.5" stop-color="#5235FF"/>
<stop offset="1" stop-color="#6D5AFF"/>
</linearGradient>
<linearGradient id="paint6_linear_148_3450" x1="428.556" y1="121.354" x2="343.918" y2="121.354" gradientUnits="userSpaceOnUse">
<stop stop-color="#FFCFCF"/>
<stop offset="1" stop-color="#FFCFCF"/>
</linearGradient>
<linearGradient id="paint7_linear_148_3450" x1="502.198" y1="132.481" x2="428.569" y2="132.481" gradientUnits="userSpaceOnUse">
<stop stop-color="#FF5249"/>
<stop offset="0.5" stop-color="#FF0808"/>
<stop offset="1" stop-color="#FF1F1C"/>
</linearGradient>
<linearGradient id="paint8_linear_148_3450" x1="373.369" y1="174.45" x2="343.918" y2="174.45" gradientUnits="userSpaceOnUse">
<stop stop-color="#FF5249"/>
<stop offset="0.5" stop-color="#FF0808"/>
<stop offset="1" stop-color="#FF1F1C"/>
</linearGradient>
<linearGradient id="paint9_linear_148_3450" x1="504.921" y1="190.378" x2="502.183" y2="190.378" gradientUnits="userSpaceOnUse">
<stop stop-color="#FF746A"/>
<stop offset="0.5" stop-color="#FF635A"/>
<stop offset="1" stop-color="#FF5249"/>
</linearGradient>
<linearGradient id="paint10_linear_148_3450" x1="374.479" y1="197.619" x2="373.384" y2="197.619" gradientUnits="userSpaceOnUse">
<stop stop-color="#FF746A"/>
<stop offset="0.5" stop-color="#FF635A"/>
<stop offset="1" stop-color="#FF5249"/>
</linearGradient>
<linearGradient id="paint11_linear_148_3450" x1="374.469" y1="218.27" x2="361.773" y2="218.27" gradientUnits="userSpaceOnUse">
<stop stop-color="#FF746A"/>
<stop offset="0.5" stop-color="#FFA4A1"/>
<stop offset="1" stop-color="#FFD3D3"/>
</linearGradient>
<linearGradient id="paint12_linear_148_3450" x1="504.931" y1="242.005" x2="473.19" y2="242.005" gradientUnits="userSpaceOnUse">
<stop stop-color="#FF746A"/>
<stop offset="0.5" stop-color="#FFA4A1"/>
<stop offset="1" stop-color="#FFD3D3"/>
</linearGradient>
<linearGradient id="paint13_linear_148_3450" x1="473.186" y1="257.855" x2="361.773" y2="257.855" gradientUnits="userSpaceOnUse">
<stop stop-color="#FF352F"/>
<stop offset="1" stop-color="#FF352F"/>
</linearGradient>
<linearGradient id="paint14_linear_148_3450" x1="241.793" y1="63.69" x2="146.437" y2="63.69" gradientUnits="userSpaceOnUse">
<stop stop-color="#2DBDDD"/>
<stop offset="0.5" stop-color="#44C1E1"/>
<stop offset="1" stop-color="#5DC7E5"/>
</linearGradient>
<linearGradient id="paint15_linear_148_3450" x1="269.217" y1="91.8407" x2="241.794" y2="91.8407" gradientUnits="userSpaceOnUse">
<stop stop-color="#1C90AC"/>
<stop offset="1" stop-color="#1C90AC"/>
</linearGradient>
<linearGradient id="paint16_linear_148_3450" x1="146.438" y1="110.526" x2="84.8364" y2="110.526" gradientUnits="userSpaceOnUse">
<stop stop-color="#5DC7E5"/>
<stop offset="0.5" stop-color="#7CCFEA"/>
<stop offset="1" stop-color="#5AC6E4"/>
</linearGradient>
<linearGradient id="paint17_linear_148_3450" x1="269.218" y1="143.076" x2="231.075" y2="143.076" gradientUnits="userSpaceOnUse">
<stop stop-color="#2DBDDD"/>
<stop offset="0.5" stop-color="#44C1E1"/>
<stop offset="1" stop-color="#5DC7E5"/>
</linearGradient>
<linearGradient id="paint18_linear_148_3450" x1="231.075" y1="161.81" x2="206.434" y2="161.81" gradientUnits="userSpaceOnUse">
<stop stop-color="#5DC7E5"/>
<stop offset="0.5" stop-color="#7CCFEA"/>
<stop offset="1" stop-color="#5AC6E4"/>
</linearGradient>
<linearGradient id="paint19_linear_148_3450" x1="84.8359" y1="168.45" x2="70.0718" y2="168.45" gradientUnits="userSpaceOnUse">
<stop stop-color="#5AC6E4"/>
<stop offset="0.5" stop-color="#3BC0DF"/>
<stop offset="1" stop-color="#22B4D1"/>
</linearGradient>
<linearGradient id="paint20_linear_148_3450" x1="206.435" y1="184.969" x2="200.529" y2="184.969" gradientUnits="userSpaceOnUse">
<stop stop-color="#5AC6E4"/>
<stop offset="0.5" stop-color="#3BC0DF"/>
<stop offset="1" stop-color="#22B4D1"/>
</linearGradient>
<linearGradient id="paint21_linear_148_3450" x1="201.192" y1="199.746" x2="200.529" y2="199.746" gradientUnits="userSpaceOnUse">
<stop stop-color="#1F9FBB"/>
<stop offset="0.5" stop-color="#20A9C6"/>
<stop offset="1" stop-color="#22B4D1"/>
</linearGradient>
<linearGradient id="paint22_linear_148_3450" x1="201.192" y1="199.746" x2="200.529" y2="199.746" gradientUnits="userSpaceOnUse">
<stop stop-color="#1F9FBB"/>
<stop offset="0.5" stop-color="#20A9C6"/>
<stop offset="1" stop-color="#22B4D1"/>
</linearGradient>
<linearGradient id="paint23_linear_148_3450" x1="71.7291" y1="205.392" x2="70.0718" y2="205.392" gradientUnits="userSpaceOnUse">
<stop stop-color="#1F9FBB"/>
<stop offset="0.5" stop-color="#20A9C6"/>
<stop offset="1" stop-color="#22B4D1"/>
</linearGradient>
<linearGradient id="paint24_linear_148_3450" x1="216.601" y1="217.382" x2="201.192" y2="217.382" gradientUnits="userSpaceOnUse">
<stop stop-color="#125970"/>
<stop offset="0.5" stop-color="#187892"/>
<stop offset="1" stop-color="#1F9FBB"/>
</linearGradient>
<linearGradient id="paint25_linear_148_3450" x1="361.775" y1="238.108" x2="331.427" y2="238.108" gradientUnits="userSpaceOnUse">
<stop stop-color="#74CDE8"/>
<stop offset="0.5" stop-color="#66C9E6"/>
<stop offset="1" stop-color="#4BC3E2"/>
</linearGradient>
<linearGradient id="paint26_linear_148_3450" x1="248.976" y1="240.921" x2="216.602" y2="240.921" gradientUnits="userSpaceOnUse">
<stop stop-color="#1B8CA8"/>
<stop offset="0.5" stop-color="#17748E"/>
<stop offset="1" stop-color="#125970"/>
</linearGradient>
<linearGradient id="paint27_linear_148_3450" x1="110.254" y1="249.454" x2="71.73" y2="249.454" gradientUnits="userSpaceOnUse">
<stop stop-color="#125970"/>
<stop offset="0.5" stop-color="#187892"/>
<stop offset="1" stop-color="#1F9FBB"/>
</linearGradient>
<linearGradient id="paint28_linear_148_3450" x1="473.188" y1="251.426" x2="361.775" y2="251.426" gradientUnits="userSpaceOnUse">
<stop stop-color="#1A849F"/>
<stop offset="1" stop-color="#1A849F"/>
</linearGradient>
<linearGradient id="paint29_linear_148_3450" x1="331.429" y1="252.693" x2="290.57" y2="252.693" gradientUnits="userSpaceOnUse">
<stop stop-color="#4BC3E2"/>
<stop offset="0.5" stop-color="#33BEDE"/>
<stop offset="1" stop-color="#23B6D5"/>
</linearGradient>
<linearGradient id="paint30_linear_148_3450" x1="290.57" y1="253.731" x2="248.977" y2="253.731" gradientUnits="userSpaceOnUse">
<stop stop-color="#23B6D5"/>
<stop offset="0.5" stop-color="#1FA2BF"/>
<stop offset="1" stop-color="#1B8CA8"/>
</linearGradient>
<linearGradient id="paint31_linear_148_3450" x1="473.189" y1="301.27" x2="397.321" y2="301.27" gradientUnits="userSpaceOnUse">
<stop stop-color="#74CDE8"/>
<stop offset="0.5" stop-color="#66C9E6"/>
<stop offset="1" stop-color="#4BC3E2"/>
</linearGradient>
<linearGradient id="paint32_linear_148_3450" x1="191.191" y1="308.303" x2="110.254" y2="308.303" gradientUnits="userSpaceOnUse">
<stop stop-color="#1B8CA8"/>
<stop offset="0.5" stop-color="#17748E"/>
<stop offset="1" stop-color="#125970"/>
</linearGradient>
<linearGradient id="paint33_linear_148_3450" x1="397.32" y1="337.732" x2="295.173" y2="337.732" gradientUnits="userSpaceOnUse">
<stop stop-color="#4BC3E2"/>
<stop offset="0.5" stop-color="#33BEDE"/>
<stop offset="1" stop-color="#23B6D5"/>
</linearGradient>
<linearGradient id="paint34_linear_148_3450" x1="295.173" y1="340.327" x2="191.19" y2="340.327" gradientUnits="userSpaceOnUse">
<stop stop-color="#23B6D5"/>
<stop offset="0.5" stop-color="#1FA2BF"/>
<stop offset="1" stop-color="#1B8CA8"/>
</linearGradient>
</defs>
</svg>

